<svg width="112" height="32" viewBox="0 0 112 32" fill="none" xmlns="http://www.w3.org/2000/svg">
<path d="M110.558 28.2628C110.558 29.9653 109.15 31.3443 107.409 31.3443H4.35374C2.61328 31.3443 1.20054 29.9653 1.20054 28.2628V3.68836C1.20054 1.98667 2.61328 0.602783 4.35374 0.602783H107.408C109.15 0.602783 110.557 1.98667 110.557 3.68836L110.558 28.2628Z" fill="black"/>
<path d="M107.077 0.639847C108.973 0.639847 110.516 2.14436 110.516 3.9933V27.9536C110.516 29.8026 108.973 31.3071 107.077 31.3071H4.68196C2.78561 31.3071 1.24252 29.8026 1.24252 27.9536V3.9933C1.24252 2.14436 2.78561 0.639847 4.68196 0.639847H107.077ZM107.077 -9.34601e-05H4.68196C2.4303 -9.34601e-05 0.586174 1.79793 0.586174 3.9933V27.9536C0.586174 30.149 2.4303 31.947 4.68196 31.947H107.077C109.328 31.947 111.172 30.149 111.172 27.9536V3.9933C111.172 1.79793 109.328 -9.34601e-05 107.077 -9.34601e-05Z" fill="#7F7F7F"/>
<path d="M25.2657 15.8017C25.242 13.2276 27.4275 11.9753 27.5274 11.917C26.2897 10.1575 24.3712 9.91707 23.6971 9.8979C22.0858 9.73257 20.5228 10.8379 19.702 10.8379C18.8648 10.8379 17.6009 9.91387 16.2386 9.94103C14.4856 9.96738 12.8457 10.9569 11.9462 12.4936C10.09 15.6268 11.4744 20.2312 13.2528 22.7638C14.1424 24.0041 15.1819 25.3891 16.5425 25.3403C17.8737 25.2868 18.3709 24.5129 19.9773 24.5129C21.5689 24.5129 22.0358 25.3403 23.4235 25.3092C24.8521 25.2868 25.7515 24.0632 26.61 22.8117C27.638 21.3901 28.0509 19.99 28.0673 19.9181C28.0337 19.9069 25.2928 18.887 25.2657 15.8017Z" fill="white"/>
<path d="M22.6444 8.23186C23.3604 7.3589 23.8502 6.17127 23.7143 4.96606C22.678 5.01079 21.3821 5.66491 20.6359 6.51869C19.9756 7.27105 19.3858 8.50421 19.5382 9.66389C20.7022 9.74855 21.8974 9.09124 22.6444 8.23186Z" fill="white"/>
<path d="M40.7658 7.99375C40.7658 8.93379 40.4767 9.64142 39.8992 10.1166C39.3643 10.5551 38.6041 10.7747 37.6195 10.7747C37.1312 10.7747 36.7135 10.754 36.3637 10.7124V5.57615C36.82 5.50427 37.3115 5.46753 37.8423 5.46753C38.7802 5.46753 39.4871 5.6664 39.9639 6.06414C40.498 6.5138 40.7658 7.15673 40.7658 7.99375ZM39.8607 8.01691C39.8607 7.40752 39.6952 6.94029 39.3643 6.61443C39.0333 6.28937 38.55 6.12644 37.9135 6.12644C37.6432 6.12644 37.413 6.14401 37.2222 6.18075V10.0855C37.3278 10.1015 37.5212 10.1086 37.8021 10.1086C38.4591 10.1086 38.9662 9.93054 39.3233 9.57433C39.6805 9.21812 39.8607 8.69898 39.8607 8.01691Z" fill="white"/>
<path d="M45.5653 8.81448C45.5653 9.39352 45.3957 9.86794 45.0566 10.2401C44.7011 10.6227 44.2301 10.8136 43.6419 10.8136C43.075 10.8136 42.6237 10.6307 42.287 10.2633C41.9512 9.89669 41.7832 9.43426 41.7832 8.87678C41.7832 8.29374 41.9561 7.81534 42.3034 7.44395C42.6507 7.07257 43.1176 6.88647 43.7058 6.88647C44.2726 6.88647 44.7281 7.06937 45.073 7.43596C45.4006 7.79218 45.5653 8.25221 45.5653 8.81448ZM44.6749 8.84164C44.6749 8.49421 44.5979 8.19631 44.4447 7.94792C44.2645 7.64761 44.0081 7.49746 43.6747 7.49746C43.3298 7.49746 43.0677 7.64761 42.8875 7.94792C42.7335 8.19631 42.6573 8.49901 42.6573 8.85681C42.6573 9.20424 42.7343 9.50214 42.8875 9.75053C43.0734 10.0508 43.3323 10.201 43.6665 10.201C43.9941 10.201 44.2514 10.0484 44.4365 9.74255C44.5954 9.48937 44.6749 9.18906 44.6749 8.84164Z" fill="white"/>
<path d="M52.0006 6.96338L50.7923 10.7283H50.0059L49.5054 9.09345C49.3785 8.68533 49.2752 8.2796 49.195 7.87707H49.1794C49.1048 8.29078 49.0016 8.69571 48.8689 9.09345L48.3373 10.7283H47.5419L46.4057 6.96338H47.288L47.7246 8.75322C47.8302 9.17652 47.9171 9.57985 47.9867 9.96162H48.0023C48.0662 9.64694 48.1718 9.246 48.3209 8.7612L48.8689 6.96418H49.5685L50.0936 8.72287C50.2205 9.15176 50.3238 9.56467 50.4032 9.96241H50.427C50.4851 9.57506 50.5728 9.16214 50.6891 8.72287L51.1577 6.96418H52.0006V6.96338Z" fill="white"/>
<path d="M56.451 10.7283H55.5926V8.57188C55.5926 7.90738 55.3337 7.57513 54.8144 7.57513C54.5596 7.57513 54.354 7.66618 54.1943 7.84908C54.0362 8.03198 53.9559 8.24762 53.9559 8.49441V10.7275H53.0974V8.03917C53.0974 7.70851 53.0868 7.34991 53.0663 6.96175H53.8207L53.8609 7.55038H53.8846C53.9846 7.36748 54.1337 7.21653 54.3294 7.09593C54.5621 6.95536 54.8226 6.88428 55.1076 6.88428C55.4681 6.88428 55.7679 6.99769 56.0062 7.22531C56.3028 7.50405 56.451 7.92016 56.451 8.47285V10.7283Z" fill="white"/>
<path d="M58.8184 10.7283H57.9608V5.23584H58.8184V10.7283Z" fill="white"/>
<path d="M63.8726 8.81448C63.8726 9.39352 63.7031 9.86794 63.3639 10.2401C63.0084 10.6227 62.5366 10.8136 61.9492 10.8136C61.3816 10.8136 60.9302 10.6307 60.5944 10.2633C60.2585 9.89669 60.0906 9.43426 60.0906 8.87678C60.0906 8.29374 60.2634 7.81534 60.6107 7.44395C60.9581 7.07257 61.425 6.88647 62.0123 6.88647C62.58 6.88647 63.0346 7.06937 63.3803 7.43596C63.708 7.79218 63.8726 8.25221 63.8726 8.81448ZM62.9814 8.84164C62.9814 8.49421 62.9044 8.19631 62.7512 7.94792C62.5718 7.64761 62.3146 7.49746 61.982 7.49746C61.6363 7.49746 61.3742 7.64761 61.1948 7.94792C61.0408 8.19631 60.9646 8.49901 60.9646 8.85681C60.9646 9.20424 61.0416 9.50214 61.1948 9.75053C61.3807 10.0508 61.6396 10.201 61.9738 10.201C62.3015 10.201 62.5579 10.0484 62.743 9.74255C62.9027 9.48937 62.9814 9.18906 62.9814 8.84164Z" fill="white"/>
<path d="M68.0274 10.7281H67.2566L67.1927 10.2944H67.1689C66.9051 10.6403 66.5291 10.8136 66.0409 10.8136C65.6764 10.8136 65.3815 10.6994 65.1595 10.4725C64.958 10.2665 64.8572 10.0101 64.8572 9.70581C64.8572 9.24577 65.0538 8.89515 65.4495 8.65235C65.8443 8.40955 66.3997 8.29055 67.1148 8.29614V8.22586C67.1148 7.72988 66.8478 7.48229 66.3129 7.48229C65.932 7.48229 65.5961 7.57573 65.3061 7.76103L65.1317 7.21154C65.4905 6.99509 65.9336 6.88647 66.4562 6.88647C67.4654 6.88647 67.9717 7.40562 67.9717 8.4439V9.8304C67.9717 10.2066 67.9905 10.5061 68.0274 10.7281ZM67.1361 9.43426V8.85362C66.1892 8.83764 65.7157 9.09083 65.7157 9.61236C65.7157 9.80884 65.7698 9.95579 65.8804 10.054C65.991 10.1523 66.1319 10.201 66.2998 10.201C66.4882 10.201 66.6643 10.1427 66.8249 10.0269C66.9862 9.91027 67.0853 9.76251 67.1222 9.58121C67.1312 9.54048 67.1361 9.49096 67.1361 9.43426Z" fill="white"/>
<path d="M72.9055 10.7283H72.1436L72.1035 10.1237H72.0797C71.8365 10.5838 71.422 10.8138 70.8395 10.8138C70.3743 10.8138 69.9868 10.6357 69.6796 10.2795C69.3724 9.92328 69.2193 9.46085 69.2193 8.89299C69.2193 8.2836 69.3855 7.79001 69.7198 7.41304C70.0433 7.06162 70.4398 6.88591 70.9116 6.88591C71.4302 6.88591 71.793 7.05603 71.9995 7.39706H72.0159V5.23584H72.8751V9.71403C72.8751 10.0806 72.885 10.4185 72.9055 10.7283ZM72.0159 9.14058V8.51282C72.0159 8.4042 72.0077 8.31634 71.9921 8.24925C71.9438 8.04799 71.8397 7.87867 71.6816 7.74209C71.5219 7.60552 71.3294 7.53683 71.1074 7.53683C70.7871 7.53683 70.5365 7.66063 70.3521 7.90901C70.1695 8.1574 70.0769 8.47448 70.0769 8.86184C70.0769 9.23402 70.1646 9.53592 70.3407 9.76834C70.5266 10.0159 70.7773 10.1397 71.091 10.1397C71.3728 10.1397 71.5981 10.0367 71.7693 9.82983C71.9348 9.63895 72.0159 9.40893 72.0159 9.14058Z" fill="white"/>
<path d="M80.2476 8.81448C80.2476 9.39352 80.078 9.86794 79.7389 10.2401C79.3833 10.6227 78.9132 10.8136 78.3242 10.8136C77.7581 10.8136 77.3068 10.6307 76.9693 10.2633C76.6334 9.89669 76.4655 9.43426 76.4655 8.87678C76.4655 8.29374 76.6384 7.81534 76.9857 7.44395C77.333 7.07257 77.7999 6.88647 78.3889 6.88647C78.9549 6.88647 79.4112 7.06937 79.7552 7.43596C80.0829 7.79218 80.2476 8.25221 80.2476 8.81448ZM79.358 8.84164C79.358 8.49421 79.281 8.19631 79.1278 7.94792C78.9467 7.64761 78.6912 7.49746 78.3569 7.49746C78.0129 7.49746 77.7508 7.64761 77.5697 7.94792C77.4157 8.19631 77.3396 8.49901 77.3396 8.85681C77.3396 9.20424 77.4166 9.50214 77.5697 9.75053C77.7557 10.0508 78.0145 10.201 78.3488 10.201C78.6764 10.201 78.9345 10.0484 79.1196 9.74255C79.2777 9.48937 79.358 9.18906 79.358 8.84164Z" fill="white"/>
<path d="M84.8635 10.7283H84.0058V8.57188C84.0058 7.90738 83.747 7.57513 83.2268 7.57513C82.9721 7.57513 82.7665 7.66618 82.6075 7.84908C82.4486 8.03198 82.3692 8.24762 82.3692 8.49441V10.7275H81.5099V8.03917C81.5099 7.70851 81.5 7.34991 81.4796 6.96175H82.2332L82.2733 7.55038H82.2971C82.3978 7.36748 82.5469 7.21653 82.7419 7.09593C82.9753 6.95536 83.235 6.88428 83.5209 6.88428C83.8805 6.88428 84.1803 6.99769 84.4187 7.22531C84.716 7.50405 84.8635 7.92016 84.8635 8.47285V10.7283Z" fill="white"/>
<path d="M90.641 7.59049H89.6957V9.41946C89.6957 9.88429 89.8637 10.1167 90.1962 10.1167C90.3502 10.1167 90.478 10.1039 90.5788 10.0776L90.6009 10.7125C90.4313 10.7748 90.2085 10.806 89.9341 10.806C89.595 10.806 89.3312 10.7053 89.1403 10.5041C88.9487 10.3028 88.8536 9.96416 88.8536 9.48895V7.59049H88.2892V6.96353H88.8536V6.27347L89.6949 6.02588V6.96273H90.6402V7.59049H90.641Z" fill="white"/>
<path d="M95.1857 10.7283H94.3264V8.58789C94.3264 7.91301 94.0676 7.57517 93.549 7.57517C93.1509 7.57517 92.879 7.77084 92.7299 8.1622C92.7045 8.24446 92.6897 8.34509 92.6897 8.4633V10.7275H91.8321V5.23584H92.6897V7.50488H92.7061C92.9764 7.09197 93.3639 6.88591 93.8661 6.88591C94.2216 6.88591 94.5156 6.99932 94.7491 7.22694C95.0399 7.51047 95.1857 7.93218 95.1857 8.48965V10.7283Z" fill="white"/>
<path d="M99.8737 8.66763C99.8737 8.81779 99.8623 8.94398 99.8418 9.04701H97.2672C97.2786 9.41919 97.4015 9.70272 97.6399 9.8992C97.8578 10.0749 98.1388 10.1628 98.4828 10.1628C98.8637 10.1628 99.211 10.1037 99.5239 9.98465L99.6583 10.5661C99.2921 10.721 98.8613 10.7985 98.3624 10.7985C97.7644 10.7985 97.2934 10.6268 96.9526 10.2834C96.6102 9.93993 96.4406 9.47909 96.4406 8.90085C96.4406 8.33299 96.5987 7.86017 96.9174 7.48319C97.25 7.08066 97.6997 6.87939 98.2674 6.87939C98.8228 6.87939 99.2446 7.08066 99.5297 7.48319C99.7599 7.80267 99.8737 8.19801 99.8737 8.66763ZM99.0546 8.45119C99.0611 8.2028 99.0046 7.98876 98.8883 7.80826C98.7392 7.57584 98.5123 7.45923 98.2051 7.45923C97.925 7.45923 97.6964 7.57265 97.5219 7.80027C97.3794 7.98157 97.295 8.19801 97.2672 8.45119H99.0546Z" fill="white"/>
<path d="M44.5298 25.1613H42.6695L41.6505 22.0392H38.1085L37.1378 25.1613H35.3266L38.8359 14.5325H41.0034L44.5298 25.1613ZM41.3433 20.7294L40.4218 17.954C40.3243 17.6705 40.1416 17.0028 39.8721 15.9517H39.8393C39.732 16.4038 39.5592 17.0715 39.3216 17.954L38.4165 20.7294H41.3433Z" fill="white"/>
<path d="M53.5545 21.235C53.5545 22.5384 53.1932 23.5687 52.4707 24.3251C51.8236 24.9984 51.02 25.3346 50.0608 25.3346C49.0254 25.3346 48.2816 24.972 47.8286 24.2468H47.7958V28.2841H46.0494V20.0202C46.0494 19.2008 46.0272 18.3598 45.9846 17.4972H47.5206L47.618 18.712H47.6508C48.2332 17.7967 49.1171 17.3398 50.3032 17.3398C51.2305 17.3398 52.0046 17.6969 52.6239 18.4117C53.2448 19.1273 53.5545 20.0681 53.5545 21.235ZM51.7753 21.2973C51.7753 20.5513 51.6032 19.9363 51.2576 19.4523C50.8799 18.9476 50.3729 18.6952 49.7372 18.6952C49.3063 18.6952 48.9148 18.8358 48.565 19.1129C48.2144 19.3924 47.985 19.7574 47.8777 20.2095C47.8237 20.4203 47.7966 20.5929 47.7966 20.7286V22.0065C47.7966 22.564 47.9719 23.0344 48.3225 23.4186C48.6731 23.8027 49.1286 23.9944 49.6889 23.9944C50.3467 23.9944 50.8586 23.7468 51.2248 23.2533C51.5918 22.7589 51.7753 22.1072 51.7753 21.2973Z" fill="white"/>
<path d="M62.5955 21.235C62.5955 22.5384 62.2343 23.5687 61.511 24.3251C60.8646 24.9984 60.061 25.3346 59.1018 25.3346C58.0664 25.3346 57.3226 24.972 56.8704 24.2468H56.8377V28.2841H55.0912V20.0202C55.0912 19.2008 55.0691 18.3598 55.0265 17.4972H56.5624L56.6599 18.712H56.6927C57.2743 17.7967 58.1582 17.3398 59.3451 17.3398C60.2716 17.3398 61.0457 17.6969 61.6666 18.4117C62.2851 19.1273 62.5955 20.0681 62.5955 21.235ZM60.8163 21.2973C60.8163 20.5513 60.6435 19.9363 60.2978 19.4523C59.9202 18.9476 59.4147 18.6952 58.7783 18.6952C58.3466 18.6952 57.9558 18.8358 57.6052 19.1129C57.2546 19.3924 57.0261 19.7574 56.9188 20.2095C56.8655 20.4203 56.8377 20.5929 56.8377 20.7286V22.0065C56.8377 22.564 57.013 23.0344 57.3619 23.4186C57.7125 23.8019 58.168 23.9944 58.7299 23.9944C59.3877 23.9944 59.8997 23.7468 60.2658 23.2533C60.6328 22.7589 60.8163 22.1072 60.8163 21.2973Z" fill="white"/>
<path d="M72.7039 22.1808C72.7039 23.0849 72.382 23.8205 71.7357 24.3884C71.0255 25.009 70.0367 25.3188 68.7662 25.3188C67.5932 25.3188 66.6528 25.0984 65.941 24.6567L66.3456 23.2375C67.1124 23.6895 67.9536 23.9164 68.8703 23.9164C69.528 23.9164 70.04 23.771 70.4078 23.4819C70.774 23.1928 70.9567 22.8046 70.9567 22.3206C70.9567 21.8893 70.8059 21.5259 70.5037 21.2312C70.203 20.9365 69.7009 20.6626 68.9997 20.4094C67.0911 19.7153 66.1376 18.6986 66.1376 17.3616C66.1376 16.4879 66.4718 15.7714 67.141 15.214C67.8078 14.6557 68.6974 14.377 69.8098 14.377C70.8018 14.377 71.6259 14.5455 72.2837 14.8817L71.8471 16.2698C71.2327 15.944 70.5381 15.781 69.7607 15.781C69.1463 15.781 68.6663 15.9288 68.3222 16.2227C68.0314 16.4855 67.8856 16.8057 67.8856 17.1851C67.8856 17.6052 68.0519 17.9526 68.3861 18.2258C68.6769 18.4782 69.2053 18.7513 69.972 19.046C70.91 19.4142 71.5989 19.8447 72.042 20.3383C72.4836 20.8303 72.7039 21.4461 72.7039 22.1808Z" fill="white"/>
<path d="M78.4782 18.7752H76.5531V22.4962C76.5531 23.4426 76.8923 23.9155 77.5722 23.9155C77.8843 23.9155 78.1431 23.8891 78.3479 23.8364L78.3962 25.1295C78.0522 25.2548 77.5992 25.3179 77.0381 25.3179C76.3484 25.3179 75.8093 25.1127 75.4202 24.703C75.0328 24.2924 74.8378 23.604 74.8378 22.6368V18.7736H73.691V17.4957H74.8378V16.0924L76.5531 15.5876V17.4957H78.4782V18.7752Z" fill="white"/>
<path d="M87.1637 21.2661C87.1637 22.4441 86.818 23.4113 86.1282 24.1677C85.4049 24.9464 84.4449 25.3345 83.2481 25.3345C82.0947 25.3345 81.1764 24.9616 80.4916 24.2156C79.8068 23.4696 79.4644 22.528 79.4644 21.3931C79.4644 20.2054 79.8166 19.2326 80.5236 18.4763C81.2289 17.7192 82.1807 17.3406 83.3775 17.3406C84.5309 17.3406 85.459 17.7136 86.1594 18.4603C86.8294 19.1847 87.1637 20.12 87.1637 21.2661ZM85.3517 21.3212C85.3517 20.6144 85.1969 20.0082 84.8831 19.5026C84.517 18.8908 83.9935 18.5857 83.3153 18.5857C82.6132 18.5857 82.08 18.8916 81.7138 19.5026C81.4001 20.009 81.2453 20.6247 81.2453 21.3531C81.2453 22.06 81.4001 22.6662 81.7138 23.1709C82.0914 23.7827 82.619 24.0878 83.2997 24.0878C83.9665 24.0878 84.4899 23.7763 84.8676 23.155C85.1895 22.6398 85.3517 22.0272 85.3517 21.3212Z" fill="white"/>
<path d="M92.8404 18.9947C92.6676 18.9636 92.4833 18.9476 92.29 18.9476C91.6756 18.9476 91.2005 19.1736 90.8663 19.6265C90.5755 20.0258 90.4297 20.5306 90.4297 21.14V25.1613H88.684L88.7004 19.9108C88.7004 19.0275 88.6783 18.2232 88.6349 17.498H90.1561L90.2199 18.9644H90.2683C90.4526 18.4604 90.7434 18.0547 91.1415 17.7504C91.5306 17.4764 91.9508 17.3398 92.4038 17.3398C92.5652 17.3398 92.711 17.351 92.8404 17.371V18.9947Z" fill="white"/>
<path d="M100.651 20.9666C100.651 21.2717 100.631 21.5289 100.587 21.7389H95.3479C95.3684 22.4961 95.6215 23.0751 96.1081 23.4745C96.5496 23.8315 97.1205 24.0104 97.8217 24.0104C98.5975 24.0104 99.3052 23.8898 99.9417 23.6478L100.215 24.8298C99.4715 25.1461 98.5934 25.3034 97.5801 25.3034C96.3612 25.3034 95.4044 24.9536 94.7081 24.2548C94.0135 23.5559 93.6653 22.6175 93.6653 21.4402C93.6653 20.2845 93.9889 19.3221 94.6369 18.5546C95.3151 17.7352 96.2317 17.3254 97.3851 17.3254C98.518 17.3254 99.3757 17.7352 99.9581 18.5546C100.419 19.2055 100.651 20.0106 100.651 20.9666ZM98.9858 20.5249C98.9972 20.0202 98.8834 19.5841 98.6466 19.2159C98.3443 18.7423 97.8799 18.5059 97.2549 18.5059C96.6839 18.5059 96.2195 18.7367 95.8648 19.1999C95.574 19.5681 95.4011 20.0098 95.3479 20.5241H98.9858V20.5249Z" fill="white"/>
</svg>
