<svg width="1440" height="758" viewBox="0 0 1440 758" fill="none" xmlns="http://www.w3.org/2000/svg">
<g clip-path="url(#clip0_3130_11762)">
<mask id="mask0_3130_11762" style="mask-type:luminance" maskUnits="userSpaceOnUse" x="0" y="-537" width="3035" height="3984">
<path d="M3035 -536.15H0V3446.2H3035V-536.15Z" fill="white"/>
</mask>
<g mask="url(#mask0_3130_11762)">
<path d="M160.238 -7.02344V79.403L119.896 -7.02344H94.5821H94.0998L94.3409 -6.56581L46.847 93.1319L-0.807605 -7.02344H-26.5234L39.5341 126.539H53.9992L107.038 19.0614L160.238 126.539H184.186V-7.02344H160.238Z" fill="#212121" fill-opacity="0.1"/>
<path d="M160.238 126.535V212.962L119.896 126.535H94.5821H94.0998L94.3409 126.993L46.847 226.69L-0.807605 126.535H-26.5234L39.5341 260.097H53.9992L107.038 152.62L160.238 260.097H184.186V126.535H160.238Z" fill="#212121" fill-opacity="0.1"/>
<path d="M160.238 260.102V346.528L119.896 260.102H94.5821H94.0998L94.3409 260.559L46.847 360.257L-0.807605 260.102H-26.5234L39.5341 393.664H53.9992L107.038 286.186L160.238 393.664H184.186V260.102H160.238Z" fill="#212121" fill-opacity="0.1"/>
<path d="M160.238 393.662V480.089L119.896 393.662H94.5821H94.0998L94.3409 394.12L46.847 493.817L-0.807605 393.662H-26.5234L39.5341 527.224H53.9992L107.038 419.747L160.238 527.224H184.186V393.662H160.238Z" fill="#212121" fill-opacity="0.1"/>
<path d="M160.238 527.215V613.641L119.896 527.215H94.5821H94.0998L94.3409 527.672L46.847 627.37L-0.807605 527.215H-26.5234L39.5341 660.777H53.9992L107.038 553.3L160.238 660.777H184.186V527.215H160.238Z" fill="#212121" fill-opacity="0.1"/>
<path d="M160.238 660.775V747.202L119.896 660.775H94.5821H94.0998L94.3409 661.233L46.847 760.931L-0.807605 660.775H-26.5234L39.5341 794.338H53.9992L107.038 686.86L160.238 794.338H184.186V660.775H160.238Z" fill="#212121" fill-opacity="0.1"/>
<path d="M369.816 -7.02344V79.403L329.394 -7.02344H304.16H303.678L303.919 -6.56581L256.425 93.1319L208.771 -7.02344H182.975L249.112 126.539H263.578L316.616 19.0614L369.816 126.539H393.764V-7.02344H369.816Z" fill="#212121" fill-opacity="0.1"/>
<path d="M369.816 126.535V212.962L329.394 126.535H304.16H303.678L303.919 126.993L256.425 226.69L208.771 126.535H182.975L249.112 260.097H263.578L316.616 152.62L369.816 260.097H393.764V126.535H369.816Z" fill="#212121" fill-opacity="0.1"/>
<path d="M369.816 260.102V346.528L329.394 260.102H304.16H303.678L303.919 260.559L256.425 360.257L208.771 260.102H182.975L249.112 393.664H263.578L316.616 286.186L369.816 393.664H393.764V260.102H369.816Z" fill="#212121" fill-opacity="0.1"/>
<path d="M369.816 393.662V480.089L329.394 393.662H304.16H303.678L303.919 394.12L256.425 493.817L208.771 393.662H182.975L249.112 527.224H263.578L316.616 419.747L369.816 527.224H393.764V393.662H369.816Z" fill="#212121" fill-opacity="0.1"/>
<path d="M369.816 527.215V613.641L329.394 527.215H304.16H303.678L303.919 527.672L256.425 627.37L208.771 527.215H182.975L249.112 660.777H263.578L316.616 553.3L369.816 660.777H393.764V527.215H369.816Z" fill="#212121" fill-opacity="0.1"/>
<path d="M369.816 660.775V747.202L329.394 660.775H304.16H303.678L303.919 661.233L256.425 760.931L208.771 660.775H182.975L249.112 794.338H263.578L316.616 686.86L369.816 794.338H393.764V660.775H369.816Z" fill="#212121" fill-opacity="0.1"/>
<path d="M579.41 -7.02344V79.403L538.988 -7.02344H513.754H513.272L513.513 -6.56581L466.019 93.1319L418.365 -7.02344H392.568L458.706 126.539H473.091L526.13 19.0614L579.41 126.539H603.358V-7.02344H579.41Z" fill="#212121" fill-opacity="0.1"/>
<path d="M579.41 126.535V212.962L538.988 126.535H513.754H513.272L513.513 126.993L466.019 226.69L418.365 126.535H392.568L458.706 260.097H473.091L526.13 152.62L579.41 260.097H603.358V126.535H579.41Z" fill="#212121" fill-opacity="0.1"/>
<path d="M579.41 260.102V346.528L538.988 260.102H513.754H513.272L513.513 260.559L466.019 360.257L418.365 260.102H392.568L458.706 393.664H473.091L526.13 286.186L579.41 393.664H603.358V260.102H579.41Z" fill="#212121" fill-opacity="0.1"/>
<path d="M579.41 393.662V480.089L538.988 393.662H513.754H513.272L513.513 394.12L466.019 493.817L418.365 393.662H392.568L458.706 527.224H473.091L526.13 419.747L579.41 527.224H603.358V393.662H579.41Z" fill="#212121" fill-opacity="0.1"/>
<path d="M579.41 527.215V613.641L538.988 527.215H513.754H513.272L513.513 527.672L466.019 627.37L418.365 527.215H392.568L458.706 660.777H473.091L526.13 553.3L579.41 660.777H603.358V527.215H579.41Z" fill="#212121" fill-opacity="0.1"/>
<path d="M579.41 660.775V747.202L538.988 660.775H513.754H513.272L513.513 661.233L466.019 760.931L418.365 660.775H392.568L458.706 794.338H473.091L526.13 686.86L579.41 794.338H603.358V660.775H579.41Z" fill="#212121" fill-opacity="0.1"/>
<path d="M788.912 -7.02344V79.403L748.57 -7.02344H723.256H722.854L723.095 -6.56581L675.601 93.1319L627.866 -7.02344H602.15L668.288 126.539H682.673L735.712 19.0614L788.912 126.539H812.94V-7.02344H788.912Z" fill="#212121" fill-opacity="0.1"/>
<path d="M788.912 126.535V212.962L748.57 126.535H723.256H722.854L723.095 126.993L675.601 226.69L627.866 126.535H602.15L668.288 260.097H682.673L735.712 152.62L788.912 260.097H812.94V126.535H788.912Z" fill="#212121" fill-opacity="0.1"/>
<path d="M788.912 260.102V346.528L748.57 260.102H723.256H722.854L723.095 260.559L675.601 360.257L627.866 260.102H602.15L668.288 393.664H682.673L735.712 286.186L788.912 393.664H812.94V260.102H788.912Z" fill="#212121" fill-opacity="0.1"/>
<path d="M788.912 393.662V480.089L748.57 393.662H723.256H722.854L723.095 394.12L675.601 493.817L627.866 393.662H602.15L668.288 527.224H682.673L735.712 419.747L788.912 527.224H812.94V393.662H788.912Z" fill="#212121" fill-opacity="0.1"/>
<path d="M788.912 527.215V613.641L748.57 527.215H723.256H722.854L723.095 527.672L675.601 627.37L627.866 527.215H602.15L668.288 660.777H682.673L735.712 553.3L788.912 660.777H812.94V527.215H788.912Z" fill="#212121" fill-opacity="0.1"/>
<path d="M788.912 660.775V747.202L748.57 660.775H723.256H722.854L723.095 661.233L675.601 760.931L627.866 660.775H602.15L668.288 794.338H682.673L735.712 686.86L788.912 794.338H812.94V660.775H788.912Z" fill="#212121" fill-opacity="0.1"/>
<path d="M998.5 -7.02344V79.403L958.158 -7.02344H932.844H932.442L932.603 -6.56581L885.189 93.1319L837.454 -7.02344H811.738L877.876 126.539H892.261L945.3 19.0614L998.5 126.539H1022.45V-7.02344H998.5Z" fill="#212121" fill-opacity="0.1"/>
<path d="M998.5 126.535V212.962L958.158 126.535H932.844H932.442L932.603 126.993L885.189 226.69L837.454 126.535H811.738L877.876 260.097H892.261L945.3 152.62L998.5 260.097H1022.45V126.535H998.5Z" fill="#212121" fill-opacity="0.1"/>
<path d="M998.5 260.102V346.528L958.158 260.102H932.844H932.442L932.603 260.559L885.189 360.257L837.454 260.102H811.738L877.876 393.664H892.261L945.3 286.186L998.5 393.664H1022.45V260.102H998.5Z" fill="#212121" fill-opacity="0.1"/>
<path d="M998.5 393.662V480.089L958.158 393.662H932.844H932.442L932.603 394.12L885.189 493.817L837.454 393.662H811.738L877.876 527.224H892.261L945.3 419.747L998.5 527.224H1022.45V393.662H998.5Z" fill="#212121" fill-opacity="0.1"/>
<path d="M998.5 527.215V613.641L958.158 527.215H932.844H932.442L932.603 527.672L885.189 627.37L837.454 527.215H811.738L877.876 660.777H892.261L945.3 553.3L998.5 660.777H1022.45V527.215H998.5Z" fill="#212121" fill-opacity="0.1"/>
<path d="M998.5 660.775V747.202L958.158 660.775H932.844H932.442L932.603 661.233L885.189 760.931L837.454 660.775H811.738L877.876 794.338H892.261L945.3 686.86L998.5 794.338H1022.45V660.775H998.5Z" fill="#212121" fill-opacity="0.1"/>
<path d="M1208.08 -7.02344V79.403L1167.74 -7.02344H1142.42H1141.94L1142.18 -6.56581L1094.77 93.1319L1047.03 -7.02344H1021.32L1087.45 126.539H1101.84L1154.88 19.0614L1208.08 126.539H1232.03V-7.02344H1208.08Z" fill="#212121" fill-opacity="0.1"/>
<path d="M1208.08 126.535V212.962L1167.74 126.535H1142.42H1141.94L1142.18 126.993L1094.77 226.69L1047.03 126.535H1021.32L1087.45 260.097H1101.84L1154.88 152.62L1208.08 260.097H1232.03V126.535H1208.08Z" fill="#212121" fill-opacity="0.1"/>
<path d="M1208.08 260.102V346.528L1167.74 260.102H1142.42H1141.94L1142.18 260.559L1094.77 360.257L1047.03 260.102H1021.32L1087.45 393.664H1101.84L1154.88 286.186L1208.08 393.664H1232.03V260.102H1208.08Z" fill="#212121" fill-opacity="0.1"/>
<path d="M1208.08 393.662V480.089L1167.74 393.662H1142.42H1141.94L1142.18 394.12L1094.77 493.817L1047.03 393.662H1021.32L1087.45 527.224H1101.84L1154.88 419.747L1208.08 527.224H1232.03V393.662H1208.08Z" fill="#212121" fill-opacity="0.1"/>
<path d="M1208.08 527.215V613.641L1167.74 527.215H1142.42H1141.94L1142.18 527.672L1094.77 627.37L1047.03 527.215H1021.32L1087.45 660.777H1101.84L1154.88 553.3L1208.08 660.777H1232.03V527.215H1208.08Z" fill="#212121" fill-opacity="0.1"/>
<path d="M1208.08 660.775V747.202L1167.74 660.775H1142.42H1141.94L1142.18 661.233L1094.77 760.931L1047.03 660.775H1021.32L1087.45 794.338H1101.84L1154.88 686.86L1208.08 794.338H1232.03V660.775H1208.08Z" fill="#212121" fill-opacity="0.1"/>
<path d="M1417.66 -7.02344V79.403L1377.32 -7.02344H1377.24H1352H1351.52L1351.76 -6.56581L1304.27 93.1319L1256.61 -7.02344H1230.9L1296.96 126.539H1311.42L1364.46 19.0614L1417.66 126.539H1441.61V-7.02344H1417.66Z" fill="#212121" fill-opacity="0.1"/>
<path d="M1417.66 126.535V212.962L1377.32 126.535H1377.24H1352H1351.52L1351.76 126.993L1304.27 226.69L1256.61 126.535H1230.9L1296.96 260.097H1311.42L1364.46 152.62L1417.66 260.097H1441.61V126.535H1417.66Z" fill="#212121" fill-opacity="0.1"/>
<path d="M1417.66 260.102V346.528L1377.32 260.102H1377.24H1352H1351.52L1351.76 260.559L1304.27 360.257L1256.61 260.102H1230.9L1296.96 393.664H1311.42L1364.46 286.186L1417.66 393.664H1441.61V260.102H1417.66Z" fill="#212121" fill-opacity="0.1"/>
<path d="M1417.66 393.658V480.085L1377.32 393.658H1377.24H1352H1351.52L1351.76 394.116L1304.27 493.814L1256.61 393.658H1230.9L1296.96 527.22H1311.42L1364.46 419.743L1417.66 527.22H1441.61V393.658H1417.66Z" fill="#212121" fill-opacity="0.1"/>
<path d="M1417.66 527.215V613.641L1377.32 527.215H1377.24H1352H1351.52L1351.76 527.672L1304.27 627.37L1256.61 527.215H1230.9L1296.96 660.777H1311.42L1364.46 553.3L1417.66 660.777H1441.61V527.215H1417.66Z" fill="#212121" fill-opacity="0.1"/>
<path d="M1417.66 660.775V747.202L1377.32 660.775H1377.24H1352H1351.52L1351.76 661.233L1304.27 760.931L1256.61 660.775H1230.9L1296.96 794.338H1311.42L1364.46 686.86L1417.66 794.338H1441.61V660.775H1417.66Z" fill="#212121" fill-opacity="0.1"/>
</g>
</g>
<defs>
<clipPath id="clip0_3130_11762">
<rect width="1440" height="758" fill="white"/>
</clipPath>
</defs>
</svg>
