<svg width="111" height="32" viewBox="0 0 111 32" fill="none" xmlns="http://www.w3.org/2000/svg">
<path d="M106.49 31.9473H4.09578C1.84413 31.9473 0 30.1492 0 27.9539V3.99354C0 1.79818 1.84413 0.000151157 4.09578 0.000151157H106.49C108.742 0.000151157 110.586 1.79818 110.586 3.99354V27.9539C110.586 30.1492 108.742 31.9473 106.49 31.9473Z" fill="black"/>
<path d="M106.49 0.64009C108.387 0.64009 109.93 2.1446 109.93 3.99354V27.9539C109.93 29.8028 108.387 31.3073 106.49 31.3073H4.09578C2.19944 31.3073 0.656349 29.8028 0.656349 27.9539V3.99354C0.656349 2.1446 2.19944 0.64009 4.09578 0.64009H106.49ZM106.49 0.000151157H4.09578C1.84413 0.000151157 0 1.79818 0 3.99354V27.9539C0 30.1492 1.84413 31.9473 4.09578 31.9473H106.49C108.742 31.9473 110.586 30.1492 110.586 27.9539V3.99354C110.586 1.79818 108.742 0.000151157 106.49 0.000151157Z" fill="#7F7F7F"/>
<path d="M7.93355 6.02069C7.69292 6.26628 7.55367 6.64865 7.55367 7.14383V24.8066C7.55367 25.3018 7.69292 25.6841 7.93355 25.9297L7.99294 25.9836L18.1443 16.09V15.8564L7.99294 5.96278L7.93355 6.02069Z" fill="white"/>
<path d="M22.7531 19.3896L19.373 16.0901V15.8565L22.7572 12.557L22.833 12.5999L26.8407 14.8232C27.9844 15.4542 27.9844 16.4924 26.8407 17.1274L22.833 19.3467L22.7531 19.3896Z" fill="white"/>
<path d="M22.2186 19.9612L18.7587 16.5878L8.5479 26.5443C8.92779 26.9337 9.54728 26.9806 10.2518 26.5912L22.2186 19.9612Z" fill="white"/>
<path d="M22.2186 11.9857L10.2518 5.35569C9.54728 4.97033 8.92779 5.01725 8.5479 5.40661L18.7587 15.3591L22.2186 11.9857Z" fill="white"/>
<path d="M38.8424 8.18169C38.8424 8.84858 38.6376 9.3827 38.2342 9.78104C37.7703 10.2533 37.1662 10.4909 36.4259 10.4909C35.7183 10.4909 35.1142 10.2493 34.6186 9.77305C34.122 9.28985 33.8742 8.69683 33.8742 7.98701C33.8742 7.27718 34.122 6.68417 34.6186 6.20496C35.1142 5.72475 35.7183 5.48315 36.4259 5.48315C36.7781 5.48315 37.114 5.55404 37.4344 5.68582C37.7539 5.8186 38.014 5.9983 38.2024 6.21993L37.7744 6.64124C37.4457 6.26286 36.9983 6.07617 36.4259 6.07617C35.9098 6.07617 35.4623 6.25188 35.0824 6.60629C34.7067 6.96171 34.5183 7.42194 34.5183 7.98701C34.5183 8.55207 34.7067 9.0163 35.0824 9.37172C35.4623 9.72214 35.9098 9.90184 36.4259 9.90184C36.9737 9.90184 37.4345 9.72214 37.798 9.36772C38.0376 9.13311 38.1737 8.80965 38.2096 8.39633H36.4259V7.81929H38.8055C38.8342 7.94408 38.8424 8.06488 38.8424 8.18169Z" fill="white" stroke="white" stroke-width="0.0327663" stroke-miterlimit="10"/>
<path d="M42.6177 6.18129H40.3824V7.69878H42.3975V8.27582H40.3824V9.79331H42.6177V10.3813H39.7496V5.59326H42.6177V6.18129Z" fill="white" stroke="white" stroke-width="0.0327663" stroke-miterlimit="10"/>
<path d="M45.282 10.3813H44.6492V6.18129H43.2781V5.59326H46.654V6.18129H45.282V10.3813Z" fill="white" stroke="white" stroke-width="0.0327663" stroke-miterlimit="10"/>
<path d="M49.0972 10.3813V5.59326H49.729V10.3813H49.0972Z" fill="white" stroke="white" stroke-width="0.0327663" stroke-miterlimit="10"/>
<path d="M52.5294 10.3813H51.9018V6.18129H50.5256V5.59326H53.9056V6.18129H52.5294V10.3813Z" fill="white" stroke="white" stroke-width="0.0327663" stroke-miterlimit="10"/>
<path d="M60.2971 9.76507C59.8128 10.2493 59.2128 10.4909 58.497 10.4909C57.7772 10.4909 57.1772 10.2493 56.6928 9.76507C56.2095 9.28187 55.9689 8.68885 55.9689 7.98701C55.9689 7.28517 56.2095 6.69215 56.6928 6.20895C57.1772 5.72475 57.7772 5.48315 58.497 5.48315C59.2087 5.48315 59.8087 5.72475 60.293 6.21295C60.7804 6.70014 61.021 7.28916 61.021 7.98701C61.021 8.68885 60.7804 9.28187 60.2971 9.76507ZM57.1608 9.36373C57.5253 9.72214 57.9687 9.90184 58.497 9.90184C59.0213 9.90184 59.4687 9.72214 59.8292 9.36373C60.1927 9.00532 60.377 8.54509 60.377 7.98701C60.377 7.42893 60.1927 6.9687 59.8292 6.61029C59.4687 6.25188 59.0213 6.07218 58.497 6.07218C57.9687 6.07218 57.5253 6.25188 57.1608 6.61029C56.7973 6.9687 56.613 7.42893 56.613 7.98701C56.613 8.54509 56.7973 9.00532 57.1608 9.36373Z" fill="white" stroke="white" stroke-width="0.0327663" stroke-miterlimit="10"/>
<path d="M61.9088 10.3813V5.59326H62.6768L65.0646 9.3171H65.0923L65.0646 8.39662V5.59326H65.6964V10.3813H65.037L62.5365 6.4738H62.5088L62.5365 7.39827V10.3813H61.9088Z" fill="white" stroke="white" stroke-width="0.0327663" stroke-miterlimit="10"/>
<path d="M55.8133 17.3728C53.8893 17.3728 52.3175 18.8005 52.3175 20.7702C52.3175 22.724 53.8893 24.1666 55.8133 24.1666C57.7413 24.1666 59.3131 22.724 59.3131 20.7702C59.3131 18.8005 57.7413 17.3728 55.8133 17.3728ZM55.8133 22.8288C54.7576 22.8288 53.8493 21.9792 53.8493 20.7702C53.8493 19.5453 54.7576 18.7106 55.8133 18.7106C56.8689 18.7106 57.7813 19.5453 57.7813 20.7702C57.7813 21.9792 56.8689 22.8288 55.8133 22.8288ZM48.1859 17.3728C46.2578 17.3728 44.6901 18.8005 44.6901 20.7702C44.6901 22.724 46.2578 24.1666 48.1859 24.1666C50.1129 24.1666 51.6816 22.724 51.6816 20.7702C51.6816 18.8005 50.1129 17.3728 48.1859 17.3728ZM48.1859 22.8288C47.1292 22.8288 46.2179 21.9792 46.2179 20.7702C46.2179 19.5453 47.1292 18.7106 48.1859 18.7106C49.2416 18.7106 50.1498 19.5453 50.1498 20.7702C50.1498 21.9792 49.2416 22.8288 48.1859 22.8288ZM39.1096 18.4141V19.8577H42.6453C42.5419 20.6644 42.2654 21.2574 41.8415 21.6707C41.3254 22.1699 40.5217 22.724 39.1096 22.724C36.9337 22.724 35.2299 21.0118 35.2299 18.8903C35.2299 16.7689 36.9337 15.0567 39.1096 15.0567C40.2861 15.0567 41.1422 15.5049 41.7739 16.086L42.8173 15.0687C41.9337 14.246 40.7582 13.6141 39.1096 13.6141C36.1259 13.6141 33.6182 15.9812 33.6182 18.8903C33.6182 21.7995 36.1259 24.1666 39.1096 24.1666C40.7223 24.1666 41.9337 23.6515 42.8859 22.6851C43.8618 21.7336 44.1659 20.3958 44.1659 19.3156C44.1659 18.9802 44.1372 18.6717 44.086 18.4141H39.1096ZM76.2236 19.5333C75.9358 18.7735 75.0481 17.3728 73.2398 17.3728C71.4479 17.3728 69.956 18.7496 69.956 20.7702C69.956 22.6731 71.4325 24.1666 73.4118 24.1666C75.0122 24.1666 75.9358 23.2152 76.3157 22.6611L75.1279 21.8894C74.7317 22.4544 74.1921 22.8288 73.4118 22.8288C72.6367 22.8288 72.0807 22.4824 71.7243 21.7995L76.3843 19.9196L76.2236 19.5333ZM71.4725 20.6644C71.4325 19.3546 72.5159 18.6837 73.292 18.6837C73.9002 18.6837 74.4163 18.9802 74.5883 19.4045L71.4725 20.6644ZM67.6849 23.9599H69.2167V13.9765H67.6849V23.9599ZM65.1762 18.1296H65.125C64.781 17.7323 64.1246 17.3728 63.2932 17.3728C61.5484 17.3728 59.9531 18.8664 59.9531 20.7812C59.9531 22.6851 61.5484 24.1666 63.2932 24.1666C64.1246 24.1666 64.781 23.8042 65.125 23.3949H65.1762V23.8821C65.1762 25.1809 64.4646 25.8788 63.3167 25.8788C62.3808 25.8788 61.8003 25.2199 61.5607 24.6658L60.2285 25.2079C60.6125 26.1084 61.6293 27.2166 63.3167 27.2166C65.1127 27.2166 66.6282 26.1863 66.6282 23.6794V17.5795H65.1762V18.1296ZM63.4242 22.8288C62.3686 22.8288 61.4849 21.9672 61.4849 20.7812C61.4849 19.5842 62.3686 18.7106 63.4242 18.7106C64.4646 18.7106 65.2848 19.5842 65.2848 20.7812C65.2848 21.9672 64.4646 22.8288 63.4242 22.8288ZM83.3953 13.9765H79.7316V23.9599H81.2593V20.1772H83.3953C85.092 20.1772 86.7559 18.9802 86.7559 17.0763C86.7559 15.1735 85.0879 13.9765 83.3953 13.9765ZM83.4352 18.7885H81.2593V15.3652H83.4352C84.5759 15.3652 85.2271 16.2886 85.2271 17.0763C85.2271 17.8491 84.5759 18.7885 83.4352 18.7885ZM92.8791 17.3539C91.7753 17.3539 90.6274 17.8291 90.1554 18.8823L91.5111 19.4364C91.8029 18.8823 92.3395 18.7026 92.9067 18.7026C93.6992 18.7026 94.503 19.1669 94.5153 19.9865V20.0913C94.2389 19.9356 93.647 19.705 92.919 19.705C91.4589 19.705 89.9711 20.4887 89.9711 21.9513C89.9711 23.2891 91.167 24.1506 92.5115 24.1506C93.5395 24.1506 94.1068 23.6984 94.4631 23.1722H94.5153V23.944H95.9908V20.1143C95.9908 18.3442 94.6351 17.3539 92.8791 17.3539ZM92.6948 22.8248C92.1951 22.8248 91.4988 22.5832 91.4988 21.9792C91.4988 21.2065 92.3671 20.91 93.1187 20.91C93.7914 20.91 94.1068 21.0548 94.5153 21.2454C94.3955 22.1699 93.5794 22.8248 92.6948 22.8248ZM101.367 17.5725L99.6105 21.9004H99.5583L97.7428 17.5725H96.0953L98.8231 23.6205L97.2667 26.9859H98.863L103.066 17.5725H101.367ZM87.5955 23.9599H89.1273V13.9765H87.5955V23.9599Z" fill="white"/>
</svg>
