<svg width="24" height="24" viewBox="0 0 24 24" fill="none" xmlns="http://www.w3.org/2000/svg">
<path d="M21.0009 4.5H5.05273V17.7434H21.0009V4.5Z" fill="#777777"/>
<path d="M17.0336 12.8848H19.0007V13.9042H14.9551L16.4841 11.9769C16.8982 11.4566 17.169 11.1009 17.2964 10.9098C17.6256 10.4214 17.7902 10.0285 17.7902 9.73117C17.7902 9.48694 17.7238 9.26927 17.5911 9.07814C17.4424 8.86577 17.2513 8.75959 17.0177 8.75959C16.7735 8.75959 16.5823 8.87374 16.4443 9.10203C16.3169 9.30378 16.2611 9.53207 16.2771 9.78691H15.0347C15.0772 9.18167 15.263 8.69588 15.5922 8.32955C15.9426 7.93667 16.4151 7.74023 17.0097 7.74023C17.5725 7.74023 18.037 7.9234 18.4034 8.28973C18.775 8.65606 18.9608 9.11796 18.9608 9.67542C18.9608 10.0736 18.8546 10.4691 18.6423 10.862C18.4936 11.1381 18.2521 11.4699 17.9176 11.8575L17.0336 12.8848Z" fill="white"/>
<path d="M13.0675 13.9042L12.5897 10.1771H12.5738L11.212 13.9838H10.8058L9.4918 10.1771H9.47587L8.9423 13.9042H7.76367L8.77507 7.74023H9.60329L11.0845 11.6982L12.5021 7.74023H13.3462L14.2461 13.9042H13.0675Z" fill="white"/>
<path d="M3.37305 4.5V17.6501" stroke="#777777" stroke-width="0.75" stroke-linecap="round" stroke-linejoin="round"/>
<path d="M20.9062 19.7949L5.05137 19.7949" stroke="#777777" stroke-width="0.75" stroke-linecap="round" stroke-linejoin="round"/>
<path d="M3.74611 17.9297H3" stroke="#777777" stroke-width="0.75" stroke-linecap="round" stroke-linejoin="round"/>
<path d="M5.05273 20.168L5.05273 19.4219" stroke="#777777" stroke-width="0.75" stroke-linecap="round" stroke-linejoin="round"/>
<path d="M3.74611 4.5H3" stroke="#777777" stroke-width="0.75" stroke-linecap="round" stroke-linejoin="round"/>
<path d="M20.9062 20.168L20.9062 19.4219" stroke="#777777" stroke-width="0.75" stroke-linecap="round" stroke-linejoin="round"/>
</svg>
