<svg width="24" height="24" viewBox="0 0 24 24" fill="none" xmlns="http://www.w3.org/2000/svg">
<path d="M8.6842 5C8.27747 5 7.94736 5.33011 7.94736 5.73684C6.31968 5.73684 5 7.05653 5 8.68421V9.46675L18.2631 9.42105V8.68421C18.2631 7.05653 16.9435 5.73684 15.3158 5.73684C15.3158 5.33011 14.9857 5 14.5789 5C14.1722 5 13.8421 5.33011 13.8421 5.73684H9.42105C9.42105 5.33011 9.09094 5 8.6842 5ZM5 10.8947V16.0526C5 17.6803 6.31968 19 7.94736 19H15.3158C16.9435 19 18.2631 17.6803 18.2631 16.0526V10.8947H5Z" fill="black"/>
</svg>
