<svg width="24" height="24" viewBox="0 0 24 24" fill="none" xmlns="http://www.w3.org/2000/svg">
<g clip-path="url(#clip0_3179_3161)">
<path d="M11.9991 17.0264C16.6132 17.0264 20.3537 14.7741 20.3537 11.9956C20.3537 9.21721 16.6132 6.96484 11.9991 6.96484C7.385 6.96484 3.64453 9.21721 3.64453 11.9956C3.64453 14.7741 7.385 17.0264 11.9991 17.0264Z" fill="#777777"/>
<path d="M12.0009 17.6727C7.78589 17.6727 4.0975 15.4207 3.03315 12.1982C2.98895 12.0674 2.98895 11.9257 3.03315 11.7949C4.0975 8.57238 7.78589 6.32031 12.0009 6.32031C16.216 6.32031 19.9025 8.57238 20.9669 11.7949C21.0111 11.9257 21.0111 12.0674 20.9669 12.1982C19.9025 15.4207 16.216 17.6727 12.0009 17.6727ZM4.32768 11.9974C5.311 14.5902 8.42855 16.3837 12.0009 16.3837C15.5733 16.3837 18.6909 14.5902 19.6723 11.9974C18.6909 9.40287 15.5751 7.60932 12.0009 7.60932C8.42671 7.60932 5.311 9.40287 4.32768 11.9974Z" fill="#777777"/>
<path d="M11.9982 16.2444C14.3444 16.2444 16.2464 14.3424 16.2464 11.9962C16.2464 9.65002 14.3444 7.74805 11.9982 7.74805C9.65198 7.74805 7.75 9.65002 7.75 11.9962C7.75 14.3424 9.65198 16.2444 11.9982 16.2444Z" fill="white"/>
<path d="M11.9989 14.7829C13.5386 14.7829 14.7868 13.5347 14.7868 11.995C14.7868 10.4552 13.5386 9.20703 11.9989 9.20703C10.4591 9.20703 9.21094 10.4552 9.21094 11.995C9.21094 13.5347 10.4591 14.7829 11.9989 14.7829Z" fill="#777777"/>
</g>
<defs>
<clipPath id="clip0_3179_3161">
<rect width="18" height="11.3506" fill="white" transform="translate(3 6.32031)"/>
</clipPath>
</defs>
</svg>
