<svg width="20" height="15" viewBox="0 0 20 15" fill="none" xmlns="http://www.w3.org/2000/svg">
<path fill-rule="evenodd" clip-rule="evenodd" d="M0 0V15H20V0H0Z" fill="#2E42A5"/>
<mask id="mask0_1672_6861" style="mask-type:luminance" maskUnits="userSpaceOnUse" x="0" y="0" width="20" height="15">
<path fill-rule="evenodd" clip-rule="evenodd" d="M0 0V15H20V0H0Z" fill="white"/>
</mask>
<g mask="url(#mask0_1672_6861)">
<path d="M-2.22656 13.9278L2.17449 15.7891L20.1003 2.02305L22.4217 -0.742876L17.7154 -1.36497L10.4039 4.5672L4.51893 8.56409L-2.22656 13.9278Z" fill="white"/>
<path d="M-1.62402 15.2324L0.618111 16.3125L21.5881 -0.999336H18.4399L-1.62402 15.2324Z" fill="#F50100"/>
<path d="M22.2275 13.9278L17.8265 15.7891L-0.0992904 2.02305L-2.42075 -0.742876L2.28555 -1.36497L9.59704 4.5672L15.482 8.56409L22.2275 13.9278Z" fill="white"/>
<path d="M22.0771 14.8652L19.835 15.9453L10.9058 8.53322L8.25843 7.70508L-2.64435 -0.731918H0.503872L11.4005 7.50482L14.2949 8.49785L22.0771 14.8652Z" fill="#F50100"/>
<mask id="path-7-inside-1_1672_6861" fill="white">
<path fill-rule="evenodd" clip-rule="evenodd" d="M12.3613 -1.25H7.63904V5H-1.23242V10H7.63904V16.25H12.3613V10H21.2676V5H12.3613V-1.25Z"/>
</mask>
<path fill-rule="evenodd" clip-rule="evenodd" d="M12.3613 -1.25H7.63904V5H-1.23242V10H7.63904V16.25H12.3613V10H21.2676V5H12.3613V-1.25Z" fill="#F50100"/>
<path d="M7.63904 -1.25V-2.08333H6.8057V-1.25H7.63904ZM12.3613 -1.25H13.1946V-2.08333H12.3613V-1.25ZM7.63904 5V5.83333H8.47237V5H7.63904ZM-1.23242 5V4.16667H-2.06576V5H-1.23242ZM-1.23242 10H-2.06576V10.8333H-1.23242V10ZM7.63904 10H8.47237V9.16667H7.63904V10ZM7.63904 16.25H6.8057V17.0833H7.63904V16.25ZM12.3613 16.25V17.0833H13.1946V16.25H12.3613ZM12.3613 10V9.16667H11.5279V10H12.3613ZM21.2676 10V10.8333H22.1009V10H21.2676ZM21.2676 5H22.1009V4.16667H21.2676V5ZM12.3613 5H11.5279V5.83333H12.3613V5ZM7.63904 -0.416667H12.3613V-2.08333H7.63904V-0.416667ZM8.47237 5V-1.25H6.8057V5H8.47237ZM-1.23242 5.83333H7.63904V4.16667H-1.23242V5.83333ZM-0.399089 10V5H-2.06576V10H-0.399089ZM7.63904 9.16667H-1.23242V10.8333H7.63904V9.16667ZM8.47237 16.25V10H6.8057V16.25H8.47237ZM12.3613 15.4167H7.63904V17.0833H12.3613V15.4167ZM11.5279 10V16.25H13.1946V10H11.5279ZM21.2676 9.16667H12.3613V10.8333H21.2676V9.16667ZM20.4342 5V10H22.1009V5H20.4342ZM12.3613 5.83333H21.2676V4.16667H12.3613V5.83333ZM11.5279 -1.25V5H13.1946V-1.25H11.5279Z" fill="white" mask="url(#path-7-inside-1_1672_6861)"/>
</g>
</svg>
