<svg width="73" height="72" viewBox="0 0 73 72" fill="none" xmlns="http://www.w3.org/2000/svg">
<g clip-path="url(#clip0_2963_5507)">
<path d="M21.1129 22.4746C19.2911 24.1181 17.8162 26.1091 16.775 28.3308C15.7337 30.5525 15.1471 32.9599 15.0497 35.4115C14.9522 37.8632 15.3459 40.3095 16.2076 42.6068C17.0692 44.9041 18.3814 47.006 20.0671 48.7889" stroke="black" stroke-width="2" stroke-linecap="square" stroke-linejoin="round"/>
<path d="M24.8471 27.5684C23.7131 28.5994 22.7966 29.8466 22.1514 31.2367C21.5061 32.6269 21.1451 34.1319 21.0896 35.6635C21.0341 37.1951 21.2851 38.7223 21.828 40.1556C22.3708 41.5888 23.1946 42.8991 24.2509 44.0095" stroke="black" stroke-width="2" stroke-linecap="square" stroke-linejoin="round"/>
<path d="M50.8867 22.4746C52.7073 24.1188 54.1811 26.1102 55.2215 28.3318C56.2619 30.5534 56.8481 32.9605 56.9455 35.4117C57.0429 37.8629 56.6496 40.3089 55.7888 42.6061C54.928 44.9033 53.6169 47.0053 51.9326 48.7889" stroke="black" stroke-width="2" stroke-linecap="square" stroke-linejoin="round"/>
<path d="M47.1523 27.5684C48.287 28.5987 49.2043 29.8453 49.8505 31.2351C50.4967 32.6248 50.8586 34.1297 50.9151 35.6613C50.9717 37.1929 50.7216 38.7203 50.1796 40.1539C49.6376 41.5875 48.8146 42.8984 47.7589 44.0095" stroke="black" stroke-width="2" stroke-linecap="square" stroke-linejoin="round"/>
<path d="M38.2453 24.7969L27.1172 37.7448H34.9822L32.9323 46.4779L45.054 33.8437H36.687L38.2453 24.7969Z" fill="#231F20"/>
</g>
<defs>
<clipPath id="clip0_2963_5507">
<rect width="44" height="29.2636" fill="white" transform="translate(14 21)"/>
</clipPath>
</defs>
</svg>
