<svg width="73" height="72" viewBox="0 0 73 72" fill="none" xmlns="http://www.w3.org/2000/svg">
<path d="M18.6836 54.9991H34.998V37H17.998C16.8935 37 15.998 37.8954 15.998 39V53.0328C15.9979 53.2962 16.0679 53.5569 16.2038 53.7995C16.3397 54.0421 16.5388 54.2616 16.7893 54.445C17.0398 54.6284 17.3365 54.772 17.662 54.8671C17.9874 54.9623 18.3348 55.0072 18.6836 54.9991Z" fill="black"/>
<path d="M53.3125 54.9991H36.998V37H53.998C55.1026 37 55.998 37.8954 55.998 39V53.0328C55.9982 53.2962 55.9282 53.5569 55.7923 53.7995C55.6564 54.0421 55.4573 54.2616 55.2068 54.445C54.9563 54.6284 54.6596 54.772 54.3341 54.8671C54.0087 54.9623 53.6613 55.0072 53.3125 54.9991Z" fill="black"/>
<path d="M18.1822 35H54.0833C54.5911 35 55.078 34.7992 55.4371 34.4419C55.7962 34.0846 55.998 33.5999 55.998 33.0945V27.9737C55.9981 27.4656 55.7972 26.9778 55.4389 26.6157C55.0807 26.2537 54.5938 26.0463 54.0833 26.0385H51.0915V24.8476C51.0915 23.576 50.7357 22.3294 50.0638 21.2476C49.392 20.1659 48.4307 19.2916 47.2877 18.7229C46.1447 18.1542 44.8651 17.9135 43.5924 18.0277C42.3197 18.1419 41.1042 18.6065 40.0819 19.3696C38.4788 20.662 37.1035 22.2116 36.0129 23.9545C34.9043 22.225 33.5316 20.6782 31.9442 19.3696C30.9253 18.6101 29.7148 18.1469 28.4472 18.0312C27.1795 17.9156 25.9047 18.1521 24.7641 18.7146C23.6257 19.2937 22.6675 20.1708 21.9927 21.2515C21.3179 22.3322 20.9521 23.5755 20.9345 24.8476V26.0385H17.9428C17.427 26.0385 16.9325 26.2424 16.5678 26.6053C16.2031 26.9683 15.998 27.4605 15.998 27.9737V33.0945C16.0059 33.6026 16.2143 34.0872 16.5782 34.4437C16.942 34.8002 17.4322 35.0001 17.9428 35H18.1822ZM42.5351 22.4361C42.9815 22.094 43.5157 21.8843 44.0765 21.8311C44.6373 21.7779 45.2019 21.8833 45.7051 22.1353C46.2084 22.3872 46.6299 22.7755 46.9212 23.2553C47.2126 23.7352 47.3618 24.2871 47.3518 24.8476V26.0385H39.3936C40.1941 24.6884 41.2038 23.4727 42.3854 22.4361H42.5351ZM24.8837 24.8476C24.8737 24.2871 25.0229 23.7352 25.3142 23.2553C25.6056 22.7755 26.0271 22.3872 26.5304 22.1353C27.0336 21.8833 27.5982 21.7779 28.159 21.8311C28.7198 21.8843 29.254 22.094 29.7004 22.4361C30.9459 23.4587 32.0168 24.6752 32.8716 26.0385H24.8837V24.8476Z" fill="black"/>
</svg>
