<svg width="24" height="24" viewBox="0 0 24 24" fill="none" xmlns="http://www.w3.org/2000/svg">
<path fill-rule="evenodd" clip-rule="evenodd" d="M12.3927 20.3569C12.0076 20.884 12.007 20.8834 12.007 20.8834L12.005 20.8821L11.9996 20.8782L11.9828 20.8666C11.8862 20.8 11.7905 20.732 11.6958 20.6629C11.5036 20.5227 11.2321 20.317 10.9075 20.0534C10.0562 19.3616 9.2598 18.6102 8.52499 17.8054C6.80652 15.9154 5 13.1962 5 10.0713C5 8.19589 5.77888 6.39727 7.16528 5.07114C8.55169 3.74501 10.4321 3 12.3927 3C14.3534 3 16.2338 3.74501 17.6202 5.07114C19.0066 6.39727 19.7855 8.19589 19.7855 10.0713C19.7855 13.1956 17.979 15.9148 16.2605 17.8054C15.5257 18.6102 14.7293 19.3616 13.878 20.0534C13.5491 20.3209 13.2111 20.578 12.8645 20.8242L12.8027 20.8666L12.7859 20.8782L12.7805 20.8821L12.7792 20.8827C12.6481 20.709 12.5193 20.5337 12.3927 20.3569ZM12.3927 20.3569L12.7778 20.884C12.6649 20.9595 12.5305 21 12.3927 21C12.255 21 12.1199 20.9589 12.007 20.8834L12.3927 20.3569ZM9.49977 10.3929C9.49977 9.62566 9.80454 8.88986 10.3471 8.34736C10.8896 7.80485 11.6254 7.50007 12.3926 7.50007C13.1598 7.50007 13.8956 7.80485 14.4381 8.34736C14.9806 8.88986 15.2854 9.62566 15.2854 10.3929C15.2854 11.1601 14.9806 11.8959 14.4381 12.4384C13.8956 12.9809 13.1598 13.2857 12.3926 13.2857C11.6254 13.2857 10.8896 12.9809 10.3471 12.4384C9.80454 11.8959 9.49977 11.1601 9.49977 10.3929Z" fill="#777777"/>
</svg>
