<svg width="24" height="24" viewBox="0 0 24 24" fill="none" xmlns="http://www.w3.org/2000/svg">
<path d="M7.5504 15.386L12.1219 20.1698L16.4947 15.4305C18.0815 13.7106 18.7832 11.3534 18.3952 9.04572C18.0197 6.81219 16.4081 4.97343 14.2398 4.31921C12.8574 3.90211 11.3839 3.89359 9.99674 4.29467L9.78121 4.35699C7.6029 4.98684 5.97845 6.80957 5.60251 9.04572C5.21544 11.3481 5.93742 13.6981 7.5504 15.386Z" fill="black"/>
<path d="M14.6245 10.6201C14.6245 12.0097 13.498 13.1363 12.1084 13.1363C10.7187 13.1363 9.59219 12.0097 9.59219 10.6201C9.59219 9.23044 10.7187 8.10391 12.1084 8.10391C13.498 8.10391 14.6245 9.23044 14.6245 10.6201Z" stroke="white" stroke-width="1.2"/>
</svg>
