<svg width="72" height="72" viewBox="0 0 72 72" fill="none" xmlns="http://www.w3.org/2000/svg">
<path d="M53.8008 18H13.8008L34.1781 43L53.8008 18Z" fill="black"/>
<path d="M41.6016 29H26.6016L34.2431 39L41.6016 29Z" fill="white"/>
<path d="M34.1962 41V62.6H30.6016H37.6016" stroke="black" stroke-width="2"/>
<path d="M63.2001 14.8606C62.9461 14.3795 62.5826 13.9651 62.1391 13.6509L62.1413 13.6475C62.1181 13.6316 62.1011 13.6078 62.0937 13.58C62.0863 13.5522 62.0891 13.5228 62.1016 13.4971C62.3477 12.9889 62.4657 12.428 62.4452 11.8636C62.4246 11.2989 62.266 10.7477 61.9832 10.2585C61.7004 9.76922 61.3019 9.35679 60.8228 9.05735C60.3436 8.75789 59.7982 8.5806 59.2346 8.54105L59.2346 8.54103L59.2281 8.54061C59.1999 8.53882 59.1731 8.5268 59.1527 8.50644C59.1323 8.48603 59.12 8.45877 59.1182 8.42978L59.1182 8.42978L59.1177 8.42328C59.0783 7.85958 58.9013 7.31409 58.6022 6.83461C58.3032 6.35513 57.8912 5.95627 57.4022 5.67307C56.9132 5.38986 56.3623 5.23096 55.7977 5.21036C55.2331 5.18976 54.6722 5.30803 54.164 5.55473C54.1389 5.56678 54.1103 5.56944 54.0835 5.56227C54.0565 5.55508 54.0328 5.53837 54.0167 5.51482L54.0158 5.51353C53.6972 5.0477 53.2706 4.6659 52.7725 4.40078L52.7725 4.40072L52.762 4.3953C52.2702 4.14095 51.7256 4.00603 51.1721 4.00137C50.6031 3.98533 50.0388 4.11025 49.5296 4.36512C49.0162 4.62207 48.575 5.00294 48.2457 5.47317L48.241 5.47992L48.2364 5.48675C48.2218 5.5083 48.2002 5.52366 48.1755 5.53029C48.1508 5.53692 48.1246 5.53445 48.1016 5.52329L48.1006 5.52283C47.592 5.27688 47.0309 5.1591 46.4663 5.17982C45.9017 5.20054 45.3507 5.3591 44.8614 5.64167C44.3721 5.92421 43.9593 6.32215 43.659 6.80078C43.3586 7.27936 43.1797 7.82413 43.1378 8.38766L43.1378 8.38766L43.1371 8.39842C43.1353 8.42756 43.1229 8.45477 43.1026 8.47508C43.0823 8.49538 43.0555 8.50745 43.0272 8.50925L43.0272 8.50924L43.0229 8.50954C42.4582 8.5479 41.9118 8.72491 41.4319 9.02483C40.952 9.32478 40.5534 9.73839 40.2713 10.229C39.9891 10.7195 39.8321 11.2721 39.814 11.8378C39.796 12.4002 39.9159 12.9583 40.1631 13.4635C40.1744 13.4887 40.1767 13.5172 40.1693 13.5441C40.1617 13.5717 40.1445 13.5956 40.121 13.6113L40.121 13.6113L40.1144 13.6158C39.648 13.934 39.2665 14.3614 39.0029 14.8606C38.7393 15.3599 38.6016 15.916 38.6016 16.4805C38.6016 17.045 38.7393 17.6011 39.0029 18.1004C39.2665 18.5996 39.648 19.027 40.1144 19.3452L40.1143 19.3452L40.1244 19.3519C40.1459 19.3663 40.1617 19.388 40.1687 19.4133C40.1755 19.4377 40.1735 19.4636 40.1633 19.4865C39.9147 19.9926 39.7938 20.5522 39.8117 21.1162C39.8296 21.6839 39.9875 22.2384 40.2714 22.7303L40.2734 22.7337C40.557 23.2209 40.9548 23.6318 41.4325 23.931C41.9102 24.2302 42.4535 24.4087 43.0156 24.451L43.0156 24.451L43.0272 24.4518C43.0555 24.4536 43.0823 24.4656 43.1026 24.4859C43.1229 24.5062 43.1353 24.5334 43.1371 24.5626L43.1371 24.5626L43.1376 24.5697C43.1774 25.1339 43.355 25.6797 43.6548 26.1592C43.9535 26.6371 44.3644 27.0347 44.8519 27.3172C45.3415 27.6067 45.8958 27.7693 46.4644 27.7899C47.0297 27.8104 47.5911 27.6899 48.0982 27.4394C48.1223 27.4291 48.1492 27.4271 48.1746 27.4339C48.2007 27.4409 48.2237 27.4568 48.2396 27.479C48.5551 27.9461 48.98 28.3289 49.4774 28.5941C49.9773 28.8606 50.5351 29 51.1016 29C51.6681 29 52.2258 28.8606 52.7257 28.5941C53.2222 28.3294 53.6465 27.9474 53.9619 27.4814C53.9792 27.4577 54.0041 27.4408 54.0321 27.4333C54.0597 27.4259 54.0888 27.4281 54.1149 27.4393C54.6202 27.6899 55.1802 27.8105 55.7441 27.7899C56.3106 27.7693 56.8629 27.6069 57.3503 27.3178C57.8394 27.0366 58.2516 26.6392 58.5507 26.1607C58.8515 25.6795 59.0284 25.1313 59.0658 24.5651L59.066 24.5626C59.0678 24.5334 59.0802 24.5062 59.1005 24.4859C59.1208 24.4656 59.1476 24.4536 59.1759 24.4518L59.1759 24.4518L59.1867 24.451C59.7501 24.4091 60.2947 24.2299 60.773 23.9291C61.2514 23.6283 61.6489 23.2151 61.931 22.7256C62.2132 22.236 62.3714 21.6849 62.3921 21.1203C62.4128 20.5556 62.2953 19.9944 62.0497 19.4855L62.0492 19.4845C62.0379 19.461 62.0353 19.4341 62.0421 19.4087C62.0489 19.3833 62.0645 19.3615 62.0858 19.3472L62.0887 19.3452C62.555 19.027 62.9365 18.5996 63.2001 18.1004C63.4637 17.6012 63.6016 17.0452 63.6016 16.4805C63.6016 15.9159 63.4637 15.3598 63.2001 14.8606Z" fill="black" stroke="white" stroke-width="2"/>
<path d="M56.3683 11.1623C55.135 9.94488 53.518 9.19215 51.7924 9.03207C50.0668 8.872 48.339 9.31446 46.9027 10.2842C45.4664 11.254 44.4103 12.6913 43.9139 14.3517C43.4175 16.0121 43.5114 17.7932 44.1797 19.3921C44.848 20.9911 46.0494 22.3093 47.5797 23.1227C49.11 23.936 50.8747 24.1943 52.574 23.8537C54.2732 23.513 55.802 22.5944 56.9005 21.254C57.999 19.9136 58.5994 18.2341 58.5996 16.5011C58.5991 15.5079 58.4016 14.5246 58.0186 13.6082C57.6356 12.6918 57.0747 11.8605 56.3683 11.1623Z" fill="white"/>
<path d="M53.0794 14.582L48.9766 19.0325" stroke="black" stroke-width="2" stroke-linecap="round"/>
<circle cx="48.7864" cy="14.1859" r="1.14138" transform="rotate(-2.32738 48.7864 14.1859)" fill="black"/>
<circle cx="54.1223" cy="19.1097" r="1.14138" transform="rotate(-2.32738 54.1223 19.1097)" fill="black"/>
</svg>
