<svg width="73" height="72" viewBox="0 0 73 72" fill="none" xmlns="http://www.w3.org/2000/svg">
<path d="M36.5943 43.0353C40.4811 43.0353 43.6319 39.8934 43.6319 36.0176C43.6319 32.1419 40.4811 29 36.5943 29C32.7075 29 29.5566 32.1419 29.5566 36.0176C29.5566 39.8934 32.7075 43.0353 36.5943 43.0353Z" fill="black"/>
<path d="M45.2062 59.2272C45.643 59.0291 46.0661 58.8024 46.4729 58.5487C47.0791 58.1679 47.5787 57.6402 47.9249 57.0148C48.2712 56.3894 48.4528 55.6868 48.453 54.9724V53.4177C48.453 49.9636 46.9373 44.9481 41.8268 43.9787C40.4632 45.1241 38.7933 45.6261 36.5966 45.6261C34.4 45.6261 32.9294 45.1319 31.3469 43.957C26.4246 44.8526 24.7403 49.6688 24.7403 53.4205V54.9724C24.738 55.676 24.913 56.369 25.2494 56.9876C25.5857 57.6062 26.0726 58.1306 26.6652 58.5126C27.0876 58.7806 27.5284 59.0187 27.9843 59.2249C35.145 60.9689 45.2062 59.2272 45.2062 59.2272Z" fill="black"/>
<path d="M50.788 39.6283C53.675 39.6283 56.0154 37.2945 56.0154 34.4157C56.0154 31.5369 53.675 29.2031 50.788 29.2031C47.9009 29.2031 45.5605 31.5369 45.5605 34.4157C45.5605 37.2945 47.9009 39.6283 50.788 39.6283Z" fill="black"/>
<path d="M54.6746 40.3264C53.6612 41.1764 52.4206 41.5479 50.7891 41.5479C49.1577 41.5479 48.0652 41.1809 46.8914 40.3086C45.4036 40.579 44.3139 41.3324 43.5449 42.318C45.8006 43.0726 47.6136 44.59 48.8381 46.7643C50.0898 48.9853 50.4178 51.3173 50.4823 52.7981C50.5848 52.7981 50.6873 52.7981 50.7914 52.7981C54.6151 52.7981 56.8607 51.9464 58.1297 51.1496C58.5794 50.8665 58.9499 50.4745 59.2067 50.0101C59.4635 49.5458 59.5983 49.0242 59.5986 48.4939V47.3362C59.5964 44.7738 58.4705 41.0482 54.6746 40.3264Z" fill="black"/>
<path d="M22.4013 39.6283C25.2883 39.6283 27.6287 37.2945 27.6287 34.4157C27.6287 31.5369 25.2883 29.2031 22.4013 29.2031C19.5142 29.2031 17.1738 31.5369 17.1738 34.4157C17.1738 37.2945 19.5142 39.6283 22.4013 39.6283Z" fill="black"/>
<path d="M29.6511 42.32C28.8821 41.3344 27.7924 40.5809 26.3046 40.3105C25.1286 41.1828 24.0339 41.5498 22.4068 41.5498C20.7798 41.5498 19.5353 41.1767 18.5213 40.3283C14.7255 41.0501 13.5996 44.7758 13.5996 47.3421V48.4997C13.5999 49.03 13.7347 49.5516 13.9915 50.016C14.2484 50.4803 14.6188 50.8723 15.0685 51.1554C16.3353 51.9522 18.5831 52.8039 22.4068 52.8039C22.511 52.8039 22.614 52.8039 22.7159 52.8039C22.7805 51.3231 23.1084 48.9934 24.3602 46.7702C25.5824 44.592 27.3959 43.0745 29.6511 42.32Z" fill="black"/>
<path d="M36.5957 13L38.1673 17.8369H43.2531L39.1386 20.8262L40.7102 25.6631L36.5957 22.6738L32.4812 25.6631L34.0528 20.8262L29.9383 17.8369H35.0241L36.5957 13Z" fill="black"/>
<path d="M26.0957 18L27.106 21.1094H30.3755L27.7304 23.0312L28.7407 26.1406L26.0957 24.2188L23.4507 26.1406L24.461 23.0312L21.8159 21.1094H25.0854L26.0957 18Z" fill="black"/>
<path d="M47.0957 18L48.106 21.1094H51.3755L48.7304 23.0312L49.7407 26.1406L47.0957 24.2188L44.4507 26.1406L45.461 23.0312L42.8159 21.1094H46.0854L47.0957 18Z" fill="black"/>
</svg>
