<svg width="73" height="72" viewBox="0 0 73 72" fill="none" xmlns="http://www.w3.org/2000/svg">
<g clip-path="url(#clip0_3109_1559)">
<path d="M55.5833 55.9889C55.5833 55.9889 32.4057 52.8053 17.1992 55.9889C17.5489 54.4936 20.4793 44.3036 17.1992 29.2539C29.9449 30.8385 42.8377 30.8385 55.5833 29.2539C52.0982 41.3854 55.5833 55.9889 55.5833 55.9889Z" fill="black"/>
<path d="M36.383 43.2544C37.8016 43.2544 38.9516 42.1044 38.9516 40.6858C38.9516 39.2672 37.8016 38.1172 36.383 38.1172C34.9644 38.1172 33.8145 39.2672 33.8145 40.6858C33.8145 42.1044 34.9644 43.2544 36.383 43.2544Z" fill="white"/>
<path d="M42.6688 50.9373H30.1152C30.1861 49.3202 30.8784 47.7928 32.0478 46.6736C33.2171 45.5544 34.7733 44.9297 36.392 44.9297C38.0106 44.9297 39.5668 45.5544 40.7362 46.6736C41.9056 47.7928 42.5979 49.3202 42.6688 50.9373Z" fill="white"/>
<path d="M52.1973 25C52.1973 20.0294 48.1678 16 43.1973 16C38.2267 16 34.1973 20.0294 34.1973 25C34.1973 29.9706 38.2267 34 43.1973 34C48.1678 34 52.1973 29.9706 52.1973 25Z" fill="black" stroke="white" stroke-width="2" stroke-miterlimit="10"/>
<path d="M47.6386 27.3131C47.2791 27.9399 46.789 28.4725 46.2052 28.8706C45.6214 29.2687 44.9593 29.522 44.2689 29.6112C43.5785 29.7005 42.8779 29.6234 42.22 29.3858C41.562 29.1482 40.964 28.7562 40.4711 28.2396C39.6353 27.3254 39.1775 26.0999 39.1979 24.8313C39.1935 24.1981 39.3094 23.5703 39.5388 22.985C39.7683 22.3997 40.1066 21.8686 40.534 21.4229C40.9582 20.9731 41.4625 20.6158 42.0182 20.3716C42.5738 20.1275 43.1698 20.0012 43.7719 20C43.2436 20.9203 43.0231 22.0002 43.1456 23.0677C43.2681 24.1352 43.7265 25.1288 44.4478 25.8902C45.2949 26.7837 46.4396 27.2941 47.6386 27.3131Z" fill="white"/>
</g>
<defs>
<clipPath id="clip0_3109_1559">
<rect width="38.3841" height="40" fill="white" transform="translate(17.2012 16)"/>
</clipPath>
</defs>
</svg>
