<svg width="73" height="72" viewBox="0 0 73 72" fill="none" xmlns="http://www.w3.org/2000/svg">
<g clip-path="url(#clip0_2963_5481)">
<path d="M52.3095 56.8691C52.3095 56.8691 28.0195 53.5191 12.0195 56.8691C12.3795 55.2891 15.4595 44.5991 12.0195 28.7891C25.4048 30.4515 38.9443 30.4515 52.3295 28.7891C48.6495 41.5691 52.3095 56.8691 52.3095 56.8691Z" fill="black"/>
<path d="M32.1593 45.01C34.1641 45.01 35.7893 43.3848 35.7893 41.38C35.7893 39.3752 34.1641 37.75 32.1593 37.75C30.1545 37.75 28.5293 39.3752 28.5293 41.38C28.5293 43.3848 30.1545 45.01 32.1593 45.01Z" fill="#F2F2F2"/>
<path d="M41.0191 55.8496H23.2891C23.3663 53.5499 24.3341 51.3703 25.9882 49.7709C27.6423 48.1714 29.8532 47.2773 32.1541 47.2773C34.455 47.2773 36.6658 48.1714 38.3199 49.7709C39.974 51.3703 40.9418 53.5499 41.0191 55.8496Z" fill="#F2F2F2"/>
<path d="M59.2299 27.5495C59.2299 21.3198 54.1797 16.2695 47.9499 16.2695C41.7202 16.2695 36.6699 21.3198 36.6699 27.5495C36.6699 33.7793 41.7202 38.8295 47.9499 38.8295C54.1797 38.8295 59.2299 33.7793 59.2299 27.5495Z" fill="#F2F2F2" stroke="#F2F2F2" stroke-width="2.53" stroke-miterlimit="10"/>
<path d="M51.4806 32.0606C51.2706 32.498 51.0123 32.9106 50.7106 33.2906C50.2182 33.8947 49.6116 34.3959 48.9254 34.7655C48.2393 35.1352 47.487 35.366 46.7117 35.445C45.9363 35.5239 45.153 35.4493 44.4064 35.2255C43.6599 35.0017 42.9647 34.6331 42.3606 34.1406C41.7565 33.6482 41.2554 33.0416 40.8857 32.3554C40.5161 31.6693 40.2852 30.917 40.2063 30.1417C40.1274 29.3663 40.2019 28.583 40.4257 27.8364C40.6495 27.0899 41.0182 26.3947 41.5106 25.7906C42 25.1833 42.6061 24.6802 43.2931 24.3109C43.9801 23.9416 44.7341 23.7137 45.5106 23.6406H45.5806C45.1161 24.6107 44.9325 25.6915 45.0506 26.7606C45.2076 28.3158 45.9722 29.7462 47.1782 30.7406C48.3842 31.7349 49.934 32.213 51.4906 32.0706L51.4806 32.0606Z" fill="black"/>
</g>
<defs>
<clipPath id="clip0_2963_5481">
<rect width="48.5" height="41.87" fill="white" transform="translate(12 15)"/>
</clipPath>
</defs>
</svg>
