<svg width="24" height="24" viewBox="0 0 24 24" fill="none" xmlns="http://www.w3.org/2000/svg">
<path d="M15.15 4C12.9132 4 11.1 5.8135 11.1 8.05C11.1 10.2865 12.9132 12.1 15.15 12.1C17.3868 12.1 19.2 10.2865 19.2 8.05C19.2 5.8135 17.3868 4 15.15 4ZM8.4 4.9C6.41181 4.9 4.8 6.5119 4.8 8.5C4.8 10.4881 6.41181 12.1 8.4 12.1C9.14646 12.1 9.82785 11.8948 10.4275 11.4754C8.8896 9.18943 9.10758 7.0006 9.94575 5.2375C9.46704 5.0107 8.94126 4.9 8.4 4.9ZM5.75625 13.3096C4.10556 13.9909 3 15.6604 3 17.5V19.3C3 19.7968 3.40293 20.2 3.9 20.2L7.63752 20.2018C7.42692 19.5178 7.48884 18.409 7.5027 17.5117C7.53195 15.6064 8.3199 14.2474 8.62851 13.8892C8.06133 13.8847 7.38066 13.747 6.88125 13.5346C6.76065 13.4833 6.69063 13.4428 6.45942 13.3375C6.23271 13.234 5.98647 13.2142 5.75625 13.3096ZM12.0562 13.3096C10.4056 13.9909 9.3 15.6604 9.3 17.5V19.3C9.3 19.7968 9.70293 20.2 10.2 20.2H20.1C20.5971 20.2 21 19.7968 21 19.3V17.5C21 15.7036 19.8883 14.0746 18.2437 13.3654C18.0123 13.2655 17.7425 13.2628 17.5125 13.3654C16.7162 13.7227 15.9404 13.9 15.15 13.9C14.3623 13.9 13.5838 13.7128 12.7594 13.3375C12.5327 13.234 12.2865 13.2142 12.0562 13.3096Z" fill="#777777"/>
</svg>
