<svg width="73" height="72" viewBox="0 0 73 72" fill="none" xmlns="http://www.w3.org/2000/svg">
<g clip-path="url(#clip0_2963_5490)">
<path d="M53.7225 21.182C52.7173 20.1746 51.5233 19.3753 50.2087 18.83C48.8942 18.2846 47.485 18.0039 46.0618 18.0039C44.6387 18.0039 43.2295 18.2846 41.9149 18.83C40.6004 19.3753 39.4064 20.1746 38.4011 21.182L37.1683 22.4044L35.9354 21.182C34.9293 20.174 33.7332 19.3756 32.4164 18.833C31.0997 18.2904 29.6883 18.0143 28.2642 18.0208C25.3937 18.0232 22.6403 19.1594 20.6035 21.182C16.8311 24.9017 15.4928 31.1504 18.9912 37.8627C23.6593 46.8406 37.1683 53.0682 37.1683 53.0682C37.1683 53.0682 44.8606 48.8533 44.2178 46.0187C43.4696 42.6783 38.4222 49.6119 36.5044 47.2305C34.5866 44.849 37.9586 36.1451 41.868 36.0187C45.3242 35.9028 45.3558 42.1304 49.3074 41.0977C51.371 40.3579 53.1435 38.9769 54.3653 37.1567C57.9375 32.0882 58.0007 25.4181 53.7225 21.182ZM34.0281 41.2031C32.8585 41.6878 31.3411 40.6973 30.6351 38.9902C29.9291 37.2832 30.5508 34.9228 31.6888 34.4486C32.8268 33.9744 34.85 35.6815 35.5455 37.3886C35.8411 38.0948 35.8527 38.8879 35.5778 39.6025C35.303 40.3171 34.7629 40.898 34.0703 41.2242L34.0281 41.2031ZM37.4739 34.8807C36.0408 35.3022 34.3759 33.9323 33.7647 31.8248C33.1535 29.7173 34.2073 27.0197 35.6403 26.5561C37.0734 26.0925 39.1914 28.4318 39.8553 30.5392C40.1151 31.4265 40.0154 32.3804 39.5777 33.1947C39.1399 34.009 38.3994 34.6184 37.516 34.8912L37.4739 34.8807ZM43.6382 32.436C42.2262 32.436 41.1303 30.6868 41.183 28.6214C41.2357 26.5561 42.9428 24.4065 44.3442 24.4697C45.7457 24.5329 47.0102 27.1673 46.9575 29.2326C46.9279 30.0864 46.5712 30.8962 45.9612 31.4944C45.3512 32.0926 44.5346 32.4335 43.6804 32.4465L43.6382 32.436ZM52.0682 34.8701C51.8895 35.6168 51.4287 36.2653 50.7824 36.6798C50.1361 37.0943 49.3545 37.2426 48.6014 37.0935C47.379 36.8195 46.7046 35.1336 47.1156 33.3211C47.5265 31.5087 49.3811 29.9597 50.614 30.2337C51.8469 30.5076 52.4791 33.0788 52.0787 34.8807L52.0682 34.8701Z" fill="black"/>
</g>
<defs>
<clipPath id="clip0_2963_5490">
<rect width="40" height="35.0685" fill="white" transform="translate(17 18)"/>
</clipPath>
</defs>
</svg>
