<svg width="24" height="24" viewBox="0 0 24 24" fill="none" xmlns="http://www.w3.org/2000/svg">
<path d="M14.4988 5C12.566 5 10.9992 6.56705 10.9992 8.49961C10.9992 10.4322 12.566 11.9992 14.4988 11.9992C16.4316 11.9992 17.9984 10.4322 17.9984 8.49961C17.9984 6.56705 16.4316 5 14.4988 5ZM8.66615 5.77769C6.94815 5.77769 5.55538 7.17053 5.55538 8.88845C5.55538 10.6064 6.94815 11.9992 8.66615 11.9992C9.31116 11.9992 9.89995 11.8219 10.4181 11.4595C9.08921 9.48419 9.27757 7.59282 10.0018 6.06932C9.58818 5.87335 9.13385 5.77769 8.66615 5.77769ZM6.38168 13.0444C4.95532 13.6331 4 15.0758 4 16.6654V18.2207C4 18.65 4.34817 18.9984 4.77769 18.9984L8.00729 19C7.82531 18.409 7.87881 17.4508 7.89079 16.6755C7.91606 15.0291 8.59693 13.8548 8.8636 13.5452C8.3735 13.5414 7.78533 13.4224 7.35379 13.2389C7.24958 13.1945 7.18908 13.1595 6.98929 13.0685C6.79339 12.9791 6.58061 12.962 6.38168 13.0444ZM11.8255 13.0444C10.3992 13.6331 9.44384 15.0758 9.44384 16.6654V18.2207C9.44384 18.65 9.79201 18.9984 10.2215 18.9984H18.7761C19.2056 18.9984 19.5538 18.65 19.5538 18.2207V16.6654C19.5538 15.1131 18.5932 13.7055 17.1721 13.0927C16.9721 13.0063 16.739 13.004 16.5403 13.0927C15.8522 13.4014 15.1818 13.5546 14.4988 13.5546C13.8182 13.5546 13.1455 13.3928 12.4331 13.0685C12.2372 12.9791 12.0244 12.962 11.8255 13.0444Z" fill="black"/>
</svg>
