<svg width="24" height="24" viewBox="0 0 24 24" fill="none" xmlns="http://www.w3.org/2000/svg">
<g id="Frame 13926">
<g id="Group 10795">
<g id="Group 10781">
<path id="Vector 271" d="M6 5.9756V11H18V5.9756C18 5.43679 17.5632 5 17.0244 5H6.9756C6.43679 5 6 5.43679 6 5.9756Z" fill="#777777" stroke="#777777" stroke-width="0.75" stroke-linejoin="round"/>
<path id="Vector 270" d="M19.6133 11.8295L20.2917 15.8997H16.5H12H7.5H3.70829L4.08804 13.6214L4.55955 11.7112C4.6744 11.2459 5.01927 10.8717 5.47364 10.7193L6.58503 10.3467C6.77111 10.2843 6.96823 10.2617 7.16359 10.2804L9.34153 10.489L11.1932 10.6663C11.7301 10.7177 12.2707 10.7174 12.8075 10.6652L14.6213 10.4889L16.7947 10.2777C16.9749 10.2601 17.1569 10.2778 17.3304 10.3295L18.6327 10.7181C19.1449 10.871 19.5254 11.3022 19.6133 11.8295Z" fill="#777777" stroke="white" stroke-width="1.2" stroke-linejoin="round"/>
<path id="Rectangle 1480" d="M21 19.5383V17.2805C21 16.8494 20.6506 16.5 20.2195 16.5H20.1813H4.05634H3.78048C3.34943 16.5 3 16.8494 3 17.2805V19.5383C3 19.7539 3.17472 19.9286 3.39024 19.9286H20.6098C20.8253 19.9286 21 19.7539 21 19.5383Z" fill="#777777"/>
<path id="Vector 272" d="M7 10V9.1011C7 8.50627 7.50495 8.0365 8.09824 8.07939L10.1853 8.23026C10.6444 8.26345 11 8.64565 11 9.10601V10.5" stroke="white" stroke-width="1.2" stroke-linejoin="round"/>
<path id="Vector 273" d="M17 10V9.1011C17 8.50627 16.4951 8.0365 15.9018 8.07939L14.0183 8.21554C13.4824 8.25428 13.1067 8.76093 13.2252 9.28498L13.5 10.5" stroke="white" stroke-width="1.2" stroke-linejoin="round"/>
</g>
</g>
</g>
</svg>
