<svg width="72" height="72" viewBox="0 0 72 72" fill="none" xmlns="http://www.w3.org/2000/svg">
<g clip-path="url(#clip0_3109_1548)">
<path d="M44.1352 14H27.3487C24.3925 14 21.9961 16.3964 21.9961 19.3526V52.6474C21.9961 55.6036 24.3925 58 27.3487 58H44.1352C47.0914 58 49.4878 55.6036 49.4878 52.6474V19.3526C49.4878 16.3964 47.0914 14 44.1352 14Z" fill="black"/>
<path d="M28.9668 25.3141C30.7928 23.4897 33.2684 22.4648 35.8497 22.4648C38.4309 22.4648 40.9065 23.4897 42.7325 25.3141" stroke="white" stroke-width="2" stroke-linecap="square" stroke-linejoin="round"/>
<path d="M31.3086 28.8129C31.9033 28.2149 32.6103 27.7402 33.3891 27.4164C34.1679 27.0925 35.003 26.9258 35.8464 26.9258C36.6898 26.9258 37.5249 27.0925 38.3037 27.4164C39.0824 27.7402 39.7895 28.2149 40.3842 28.8129" stroke="white" stroke-width="2" stroke-linecap="square" stroke-linejoin="round"/>
<path d="M35.7484 54.7545C36.385 54.7545 36.901 54.2385 36.901 53.6019C36.901 52.9653 36.385 52.4492 35.7484 52.4492C35.1118 52.4492 34.5957 52.9653 34.5957 53.6019C34.5957 54.2385 35.1118 54.7545 35.7484 54.7545Z" fill="white"/>
<path d="M32.4649 39.8611C32.465 39.165 32.6802 38.4859 33.081 37.9168C33.4818 37.3476 34.0486 36.9161 34.704 36.6814V33.3691C34.7344 33.0864 34.8683 32.8249 35.0798 32.6349C35.2914 32.4449 35.5657 32.3398 35.85 32.3398C36.1343 32.3398 36.4086 32.4449 36.6202 32.6349C36.8317 32.8249 36.9656 33.0864 36.996 33.3691V36.6814C37.5819 36.8903 38.0991 37.2564 38.4909 37.7395C38.8827 38.2227 39.1341 38.8043 39.2177 39.4207C39.3012 40.0371 39.2135 40.6646 38.9644 41.2346C38.7152 41.8045 38.3141 42.295 37.8049 42.6523C37.2957 43.0097 36.6981 43.2201 36.0774 43.2605C35.4566 43.301 34.8367 43.17 34.2854 42.8819C33.7342 42.5937 33.2727 42.1595 32.9516 41.6268C32.6305 41.094 32.4622 40.4832 32.4649 39.8611Z" fill="white"/>
<path d="M36.291 33.7676H38.4374" stroke="white" stroke-miterlimit="10"/>
<path d="M36.4375 35.4902H37.9346" stroke="white" stroke-miterlimit="10"/>
</g>
<defs>
<clipPath id="clip0_3109_1548">
<rect width="27.4917" height="44" fill="white" transform="translate(21.998 14)"/>
</clipPath>
</defs>
</svg>
