<svg width="73" height="72" viewBox="0 0 73 72" fill="none" xmlns="http://www.w3.org/2000/svg">
<path d="M14.1992 27.2625C17.064 24.3305 20.486 22.0007 24.264 20.41C28.0421 18.8194 32.1 18 36.1992 18C40.2985 18 44.3564 18.8194 48.1344 20.41C51.9124 22.0007 55.3344 24.3305 58.1992 27.2625" stroke="black" stroke-width="2" stroke-linecap="square" stroke-linejoin="round"/>
<path d="M20.5586 31.8528C22.5941 29.7713 25.025 28.1173 27.7085 26.9882C30.3921 25.859 33.2741 25.2773 36.1855 25.2773C39.0969 25.2773 41.979 25.859 44.6626 26.9882C47.3461 28.1173 49.7769 29.7713 51.8125 31.8528" stroke="black" stroke-width="2" stroke-linecap="square" stroke-linejoin="round"/>
<path d="M26.4375 36.5269C27.708 35.2251 29.226 34.1906 30.9022 33.4843C32.5785 32.7779 34.3791 32.4141 36.1981 32.4141C38.0171 32.4141 39.8177 32.7779 41.494 33.4843C43.1703 34.1906 44.6883 35.2251 45.9587 36.5269" stroke="black" stroke-width="2" stroke-linecap="square" stroke-linejoin="round"/>
<path d="M40.8722 44.6752C41.0375 44.6619 41.2034 44.6933 41.3524 44.766C41.5014 44.8387 41.6281 44.9502 41.7193 45.0887C41.8106 45.2272 41.8629 45.3876 41.8708 45.5533C41.8788 45.7189 41.8421 45.8837 41.7645 46.0303L37.3579 53.6206C37.2632 53.7737 37.1298 53.899 36.9712 53.9841C36.8126 54.0692 36.6344 54.111 36.4546 54.1054H36.3775C36.2298 54.1103 36.0829 54.0806 35.9488 54.0187C35.8146 53.9567 35.6967 53.8643 35.6047 53.7487C35.5126 53.633 35.4489 53.4975 35.4185 53.3528C35.3882 53.2082 35.3921 53.0584 35.43 52.9156L37.3469 47.154H33.436C33.2939 47.1625 33.1516 47.1389 33.0198 47.0849C32.888 47.0309 32.7701 46.9479 32.6749 46.842C32.5796 46.7362 32.5094 46.6102 32.4695 46.4735C32.4296 46.3367 32.4211 46.1928 32.4446 46.0523L33.436 40.8745C33.489 40.6533 33.6165 40.4571 33.797 40.3186C33.9775 40.1802 34.2001 40.1081 34.4275 40.1144H37.5672C37.7085 40.1075 37.8495 40.1324 37.9799 40.1872C38.1103 40.2419 38.2268 40.3252 38.3208 40.4308C38.4149 40.5365 38.484 40.6618 38.5233 40.7977C38.5625 40.9336 38.5709 41.0765 38.5477 41.216L37.8867 44.6752H40.8722Z" fill="black"/>
</svg>
