<svg width="24" height="24" viewBox="0 0 24 24" fill="none" xmlns="http://www.w3.org/2000/svg">
<path d="M21.0001 4.50073H5.052V17.7441H21.0001V4.50073Z" fill="black"/>
<path d="M13.161 12.9998L12.8253 10.3809H12.8141L11.8572 13.0557H11.5718L10.6485 10.3809H10.6373L10.2624 12.9998H9.43424L10.1449 8.6686H10.7269L11.7677 11.4497L12.7637 8.6686H13.3569L13.9892 12.9998H13.161ZM15.9474 12.2835H17.3296V12.9998H14.4869L15.5613 11.6456C15.8523 11.28 16.0425 11.03 16.1321 10.8957C16.3634 10.5525 16.479 10.2765 16.479 10.0675C16.479 9.89594 16.4324 9.74299 16.3391 9.60869C16.2347 9.45947 16.1004 9.38486 15.9362 9.38486C15.7646 9.38486 15.6303 9.46507 15.5333 9.62548C15.4438 9.76724 15.4046 9.92765 15.4158 10.1067H14.5429C14.5727 9.68144 14.7033 9.34009 14.9346 9.08269C15.1808 8.80663 15.5128 8.6686 15.9306 8.6686C16.3261 8.6686 16.6525 8.7973 16.9099 9.05471C17.171 9.31211 17.3016 9.63667 17.3016 10.0284C17.3016 10.3082 17.227 10.5861 17.0778 10.8622C16.9733 11.0561 16.8036 11.2893 16.5686 11.5616L15.9474 12.2835Z" fill="white"/>
<path d="M3.37329 4.50073V17.6508" stroke="black" stroke-width="0.75" stroke-linecap="round" stroke-linejoin="round"/>
<path d="M20.9067 19.7954L5.05186 19.7954" stroke="black" stroke-width="0.75" stroke-linecap="round" stroke-linejoin="round"/>
<path d="M3.74623 17.9314H3.00012" stroke="black" stroke-width="0.75" stroke-linecap="round" stroke-linejoin="round"/>
<path d="M5.05188 20.169L5.05188 19.4229" stroke="black" stroke-width="0.75" stroke-linecap="round" stroke-linejoin="round"/>
<path d="M3.74623 4.50073H3.00012" stroke="black" stroke-width="0.75" stroke-linecap="round" stroke-linejoin="round"/>
<path d="M20.9067 20.169L20.9067 19.4229" stroke="black" stroke-width="0.75" stroke-linecap="round" stroke-linejoin="round"/>
</svg>
