<svg width="24" height="24" viewBox="0 0 24 24" fill="none" xmlns="http://www.w3.org/2000/svg">
<path d="M7.36585 16.1377L12.6406 21.6574L17.6862 16.189C19.5171 14.2046 20.3267 11.4846 19.8791 8.82199C19.4458 6.24483 17.5863 4.12319 15.0843 3.36831C13.4893 2.88705 11.7891 2.87722 10.1885 3.34001L9.93986 3.41192C7.42643 4.13866 5.55206 6.24181 5.11828 8.82199C4.67166 11.4786 5.50472 14.1901 7.36585 16.1377Z" fill="black"/>
<path d="M15.6211 10.6378C15.6211 12.2922 14.2799 13.6334 12.6255 13.6334C10.9711 13.6334 9.62991 12.2922 9.62991 10.6378C9.62991 8.98341 10.9711 7.64224 12.6255 7.64224C14.2799 7.64224 15.6211 8.98341 15.6211 10.6378Z" stroke="white" stroke-width="1.2"/>
</svg>
