<svg width="24" height="24" viewBox="0 0 24 24" fill="none" xmlns="http://www.w3.org/2000/svg">
<path d="M6 5.9756V11H18V5.9756C18 5.43679 17.5632 5 17.0244 5H6.9756C6.43679 5 6 5.43679 6 5.9756Z" fill="black" stroke="black" stroke-width="0.75" stroke-linejoin="round"/>
<path d="M19.6133 11.8293L20.2917 15.8995H16.5H12H7.5H3.70829L4.08804 13.6212L4.55955 11.7109C4.6744 11.2457 5.01927 10.8715 5.47364 10.7191L6.58503 10.3464C6.77111 10.284 6.96823 10.2614 7.16359 10.2801L9.34153 10.4887L11.1932 10.6661C11.7301 10.7175 12.2707 10.7171 12.8075 10.6649L14.6213 10.4887L16.7947 10.2774C16.9749 10.2599 17.1569 10.2775 17.3304 10.3293L18.6327 10.7179C19.1449 10.8708 19.5254 11.302 19.6133 11.8293Z" fill="black" stroke="white" stroke-width="1.2" stroke-linejoin="round"/>
<path d="M21 19.5381V17.2802C21 16.8492 20.6506 16.4998 20.2195 16.4998H20.1813H4.05634H3.78048C3.34943 16.4998 3 16.8492 3 17.2802V19.5381C3 19.7536 3.17472 19.9283 3.39024 19.9283H20.6098C20.8253 19.9283 21 19.7536 21 19.5381Z" fill="black"/>
<path d="M7 10V9.1011C7 8.50627 7.50495 8.0365 8.09824 8.07939L10.1853 8.23026C10.6444 8.26345 11 8.64565 11 9.10601V10.5" stroke="white" stroke-width="1.2" stroke-linejoin="round"/>
<path d="M17 10V9.1011C17 8.50627 16.4951 8.0365 15.9018 8.07939L14.0183 8.21554C13.4824 8.25428 13.1067 8.76093 13.2252 9.28498L13.5 10.5" stroke="white" stroke-width="1.2" stroke-linejoin="round"/>
</svg>
