<svg width="30" height="20" viewBox="0 0 30 20" fill="none" xmlns="http://www.w3.org/2000/svg">
<path fill-rule="evenodd" clip-rule="evenodd" d="M26.1498 0.611787C27.3734 0.941211 28.3381 1.90595 28.6676 3.12953C29.2794 5.3649 29.2558 10.0239 29.2558 10.0239C29.2558 10.0239 29.2558 14.6594 28.6676 16.8947C28.3381 18.1183 27.3734 19.0831 26.1498 19.4125C23.9145 20.0007 14.9729 20.0007 14.9729 20.0007C14.9729 20.0007 6.05497 20.0007 3.79606 19.389C2.57249 19.0595 1.60774 18.0948 1.27832 16.8712C0.690063 14.6594 0.690063 10.0004 0.690063 10.0004C0.690063 10.0004 0.690063 5.3649 1.27832 3.12953C1.60774 1.90595 2.59602 0.917681 3.79606 0.588257C6.03144 0 14.9729 0 14.9729 0C14.9729 0 23.9145 0 26.1498 0.611787ZM19.5613 9.83699L12.1258 14.1195V5.55448L19.5613 9.83699Z" fill="white"/>
</svg>
