<svg width="19" height="20" viewBox="0 0 19 20" fill="none" xmlns="http://www.w3.org/2000/svg">
<path d="M6.83996 16.5743C8.50877 16.5743 9.8616 15.3795 9.8616 13.5526V0H13.4854C13.2821 2.47163 15.7392 4.85915 18.4489 4.80455V8.21214C16.1315 8.21214 14.161 7.23228 13.4751 6.68848V13.5526C13.4751 16.5743 11.098 20.0007 6.83996 20.0007C2.58189 20.0007 0.256683 16.5743 0.256683 13.5526C0.256683 9.28786 4.7699 6.81446 7.75909 7.41899V10.8898C7.60872 10.8366 7.22092 10.758 6.89061 10.758C5.20794 10.6959 3.81831 12.0607 3.81831 13.5526C3.81831 15.2214 5.17115 16.5743 6.83996 16.5743Z" fill="white"/>
</svg>
