<svg width="21" height="20" viewBox="0 0 21 20" fill="none" xmlns="http://www.w3.org/2000/svg">
<g clip-path="url(#clip0_257_1824)">
<path d="M10.6867 0.00101039C12.1155 0.00101039 13.5445 0.00421382 14.9732 0.00101039C15.8113 -0.00155236 16.6243 0.141315 17.3787 0.499138C19.1845 1.3551 20.2794 2.77166 20.6097 4.75331C20.6623 5.09006 20.6875 5.43052 20.685 5.77135C20.6907 8.59037 20.685 11.4123 20.6898 14.2326C20.6923 15.6139 20.3054 16.8613 19.4247 17.9335C18.6152 18.9199 17.5898 19.5833 16.3328 19.8447C15.8903 19.9386 15.4396 19.9881 14.9873 19.9924C12.1244 20.0052 9.26151 20.0004 6.39828 19.9984C5.04772 19.9984 3.82497 19.6089 2.77232 18.7491C1.77926 17.9374 1.11614 16.9055 0.845453 15.6475C0.749792 15.1999 0.70052 14.7435 0.698417 14.2858C0.685283 11.4283 0.692007 8.57051 0.691687 5.71273C0.691687 4.34262 1.09308 3.10899 1.96986 2.04897C2.78001 1.06968 3.80703 0.429312 5.05348 0.14773C5.50579 0.0480483 5.96781 -0.000849078 6.43096 0.00196453L10.6867 0.00101039ZM5.89086 9.99957C5.89374 12.6379 8.03716 14.8047 10.6816 14.7932C13.3984 14.7829 15.4759 12.6321 15.4867 9.9986C15.4967 7.35513 13.3151 5.18833 10.6816 5.20082C8.03908 5.21459 5.8883 7.36795 5.89086 9.99957ZM14.6897 4.802C14.6878 5.44685 15.225 5.98728 15.8785 5.99913C16.5266 6.01034 17.0862 5.4587 17.0878 4.8068C17.0868 4.4889 16.9607 4.18417 16.7367 3.95857C16.5127 3.73296 16.2089 3.60464 15.891 3.60135C15.2359 3.59943 14.692 4.14305 14.6897 4.802Z" fill="white"/>
<path d="M10.6867 6.8003C12.4428 6.79741 13.8923 8.24921 13.8901 10.0073C13.8879 11.7653 12.4486 13.1979 10.6921 13.1988C8.93023 13.1988 7.48868 11.7573 7.49189 9.99349C7.49459 9.14716 7.8321 8.33627 8.4307 7.73797C9.0293 7.13968 9.84034 6.80258 10.6867 6.8003Z" fill="white"/>
</g>
<defs>
<clipPath id="clip0_257_1824">
<rect width="20" height="20" fill="white" transform="translate(0.690063)"/>
</clipPath>
</defs>
</svg>
