<svg width="21" height="20" viewBox="0 0 21 20" fill="none" xmlns="http://www.w3.org/2000/svg">
<path fill-rule="evenodd" clip-rule="evenodd" d="M1.67558 0C0.891523 0 0.25592 0.635602 0.25592 1.41966V18.581C0.25592 19.3651 0.891524 20.0007 1.67558 20.0007H18.837C19.6211 20.0007 20.2567 19.3651 20.2567 18.581V1.41966C20.2567 0.635603 19.6211 0 18.837 0H1.67558ZM4.74519 6.21111C5.70344 6.21111 6.48025 5.43429 6.48025 4.47605C6.48025 3.5178 5.70344 2.74099 4.74519 2.74099C3.78694 2.74099 3.01013 3.5178 3.01013 4.47605C3.01013 5.43429 3.78694 6.21111 4.74519 6.21111ZM8.06927 7.49336H10.9448V8.81067C10.9448 8.81067 11.7251 7.25003 13.8483 7.25003C15.7422 7.25003 17.3111 8.18303 17.3111 11.0269V17.0237H14.3312V11.7535C14.3312 10.0759 13.4356 9.89142 12.7531 9.89142C11.3367 9.89142 11.0943 11.1131 11.0943 11.9724V17.0237H8.06927V7.49336ZM6.25769 7.49338H3.2327V17.0238H6.25769V7.49338Z" fill="white"/>
</svg>
