<svg width="88" height="48" viewBox="0 0 88 48" fill="none" xmlns="http://www.w3.org/2000/svg">
<g clip-path="url(#clip0_257_1900)">
<path d="M32.0369 43.2261V40.1121H33.0005V47.836H32.0369V44.1286H28.36V47.836H27.3964V40.1121H28.36V43.2261H32.0369Z" fill="#C22033"/>
<path d="M42.457 43.9738C42.434 45.0317 41.9976 46.0385 41.2413 46.7786C40.4851 47.5186 39.469 47.9331 38.4109 47.9331C37.3527 47.9331 36.3367 47.5186 35.5804 46.7786C34.8241 46.0385 34.3877 45.0317 34.3648 43.9738C34.3877 42.916 34.8241 41.9092 35.5804 41.1691C36.3367 40.4291 37.3527 40.0146 38.4109 40.0146C39.469 40.0146 40.4851 40.4291 41.2413 41.1691C41.9976 41.9092 42.434 42.916 42.457 43.9738ZM41.5029 43.9738C41.5029 42.2737 40.2322 40.8503 38.4195 40.8503C36.6068 40.8503 35.3341 42.2737 35.3341 43.9738C35.3238 44.3854 35.3961 44.7948 35.5465 45.1779C35.6969 45.5611 35.9224 45.9103 36.2099 46.205C36.4973 46.4996 36.8408 46.7338 37.2201 46.8937C37.5994 47.0536 38.0069 47.136 38.4185 47.136C38.8301 47.136 39.2376 47.0536 39.6169 46.8937C39.9962 46.7338 40.3397 46.4996 40.6272 46.205C40.9146 45.9103 41.1402 45.5611 41.2906 45.1779C41.441 44.7948 41.5132 44.3854 41.5029 43.9738Z" fill="#C22033"/>
<path d="M45.9831 47.836H45.0196V40.9917H43.1859V40.1121H47.8168V40.9917H45.9831V47.836Z" fill="#C22033"/>
<path d="M49.0895 40.1121H53.2377V40.9917H50.0512V43.1536H53.1461V44.0351H50.0512V46.9564H53.2377V47.836H49.0895V40.1121Z" fill="#C22033"/>
<path d="M55.9033 46.9545H58.2484V47.836H54.9397V40.1121H55.9033V46.9545Z" fill="#C22033"/>
<path d="M62.8297 41.5774C62.7138 41.3506 62.5355 41.1616 62.3157 41.0328C62.096 40.904 61.844 40.8407 61.5894 40.8504C60.975 40.8504 60.2977 41.2702 60.2977 41.9457C60.2977 42.5505 60.893 42.8673 61.3738 43.0524L61.9272 43.268C63.0243 43.6973 63.8353 44.3022 63.8353 45.594C63.8353 46.9964 62.7496 48.0001 61.3662 48.0001C60.7718 47.9985 60.199 47.7769 59.7583 47.3781C59.3175 46.9792 59.04 46.4314 58.9792 45.8401L59.9523 45.634C59.9484 45.83 59.984 46.0248 60.057 46.2068C60.13 46.3888 60.2388 46.5542 60.377 46.6932C60.5152 46.8323 60.68 46.9421 60.8615 47.0162C61.0431 47.0902 61.2376 47.127 61.4337 47.1243C61.6297 47.1216 61.8232 47.0795 62.0026 47.0005C62.182 46.9215 62.3437 46.8072 62.4781 46.6644C62.6124 46.5216 62.7167 46.3533 62.7846 46.1694C62.8526 45.9855 62.8828 45.7898 62.8736 45.594C62.8736 44.7639 62.2077 44.4052 61.5379 44.1285L61.0037 43.9015C60.1221 43.5199 59.3245 43.0218 59.3245 41.9457C59.3245 40.6959 60.4312 39.9479 61.599 39.9479C62.0056 39.9401 62.4065 40.0451 62.7571 40.2512C63.1077 40.4574 63.3944 40.7566 63.5853 41.1157L62.8297 41.5774Z" fill="#C22033"/>
<path d="M40.0681 7.68774H36.5553V31.7622H40.0681V7.68774Z" fill="white"/>
<path d="M61.0514 31.7622L49.1449 13.1545H49.0781V31.7622H45.5653V7.6897H49.4044L61.1162 26.0036H61.1811V7.6897H64.6939V31.7622H61.0514Z" fill="white"/>
<path d="M27.3907 7.6897V23.2674L21.4699 7.6897H21.4718H21.4699H17.7624H17.6957L17.73 7.77365L10.7674 25.7441L3.77421 7.6897H0L9.69502 31.7641H11.8092L19.5866 12.3836L27.3907 31.7641H30.9054V7.6897H27.3907Z" fill="white"/>
<path d="M73.5742 18.2147V7.6897H70.0614V31.7622H73.5742V20.0942V19.6267V18.2147Z" fill="white"/>
<path d="M86.8068 7.6897H82.7807L73.6391 19.6286L82.7807 31.7622H87.1064L77.7052 19.6286L86.8068 7.6897Z" fill="white"/>
<path d="M38.2573 0L36.5553 4.39434H40.0681L41.6689 0H38.2573Z" fill="#C22033"/>
</g>
<defs>
<clipPath id="clip0_257_1900">
<rect width="87.1064" height="48" fill="white"/>
</clipPath>
</defs>
</svg>
