<svg width="88" height="48" viewBox="0 0 88 48" fill="none" xmlns="http://www.w3.org/2000/svg">
<g clip-path="url(#clip0_3211_10926)">
<path d="M32.037 43.2263V40.1123H33.0006V47.8363H32.037V44.1288H28.3601V47.8363H27.3965V40.1123H28.3601V43.2263H32.037Z" fill="#C22033"/>
<path d="M42.4575 43.9738C42.4345 45.0317 41.9981 46.0385 41.2418 46.7786C40.4855 47.5186 39.4695 47.9331 38.4113 47.9331C37.3532 47.9331 36.3372 47.5186 35.5809 46.7786C34.8246 46.0385 34.3882 45.0317 34.3652 43.9738C34.3882 42.916 34.8246 41.9092 35.5809 41.1691C36.3372 40.4291 37.3532 40.0146 38.4113 40.0146C39.4695 40.0146 40.4855 40.4291 41.2418 41.1691C41.9981 41.9092 42.4345 42.916 42.4575 43.9738ZM41.5034 43.9738C41.5034 42.2737 40.2326 40.8503 38.4199 40.8503C36.6072 40.8503 35.3345 42.2737 35.3345 43.9738C35.3243 44.3854 35.3965 44.7948 35.5469 45.1779C35.6973 45.5611 35.9229 45.9103 36.2103 46.205C36.4978 46.4996 36.8412 46.7338 37.2206 46.8937C37.5999 47.0536 38.0073 47.136 38.419 47.136C38.8306 47.136 39.2381 47.0536 39.6174 46.8937C39.9967 46.7338 40.3402 46.4996 40.6276 46.205C40.9151 45.9103 41.1406 45.5611 41.291 45.1779C41.4414 44.7948 41.5136 44.3854 41.5034 43.9738Z" fill="#C22033"/>
<path d="M45.9828 47.8363H45.0192V40.9919H43.1855V40.1123H47.8165V40.9919H45.9828V47.8363Z" fill="#C22033"/>
<path d="M49.0898 40.1123H53.238V40.9919H50.0515V43.1538H53.1465V44.0353H50.0515V46.9566H53.238V47.8363H49.0898V40.1123Z" fill="#C22033"/>
<path d="M55.903 46.9547H58.2481V47.8363H54.9395V40.1123H55.903V46.9547Z" fill="#C22033"/>
<path d="M62.829 41.5772C62.7132 41.3504 62.5348 41.1614 62.3151 41.0326C62.0953 40.9038 61.8433 40.8405 61.5888 40.8502C60.9744 40.8502 60.297 41.27 60.297 41.9454C60.297 42.5503 60.8923 42.867 61.3732 43.0521L61.9265 43.2677C63.0237 43.6971 63.8346 44.3019 63.8346 45.5937C63.8346 46.9962 62.7489 47.9998 61.3655 47.9998C60.7711 47.9982 60.1983 47.7767 59.7576 47.3778C59.3168 46.979 59.0393 46.4311 58.9785 45.8399L59.9516 45.6338C59.9478 45.8298 59.9834 46.0246 60.0563 46.2066C60.1293 46.3885 60.2381 46.554 60.3763 46.693C60.5146 46.832 60.6793 46.9419 60.8609 47.0159C61.0424 47.09 61.237 47.1267 61.433 47.1241C61.629 47.1214 61.8225 47.0793 62.002 47.0003C62.1814 46.9213 62.3431 46.807 62.4774 46.6642C62.6118 46.5214 62.716 46.353 62.784 46.1691C62.8519 45.9852 62.8822 45.7895 62.8729 45.5937C62.8729 44.7637 62.207 44.405 61.5373 44.1283L61.003 43.9012C60.1215 43.5196 59.3239 43.0216 59.3239 41.9454C59.3239 40.6956 60.4306 39.9477 61.5983 39.9477C62.005 39.9399 62.4058 40.0449 62.7564 40.251C63.107 40.4571 63.3937 40.7563 63.5846 41.1154L62.829 41.5772Z" fill="#C22033"/>
<path d="M40.0675 7.6875H36.5547V31.7619H40.0675V7.6875Z" fill="black"/>
<path d="M61.0505 31.762L49.144 13.1542H49.0773V31.762H45.5645V7.68945H49.4035L61.1154 26.0033H61.1803V7.68945H64.6931V31.762H61.0505Z" fill="black"/>
<path d="M27.3907 7.68945V23.2671L21.4699 7.68945H21.4718H21.4699H17.7624H17.6957L17.73 7.77341L10.7674 25.7438L3.77421 7.68945H0L9.69502 31.7639H11.8092L19.5866 12.3834L27.3907 31.7639H30.9054V7.68945H27.3907Z" fill="black"/>
<path d="M73.5733 18.2145V7.68945H70.0605V31.762H73.5733V20.094V19.6265V18.2145Z" fill="black"/>
<path d="M86.8064 7.68945H82.7803L73.6387 19.6284L82.7803 31.762H87.106L77.7048 19.6284L86.8064 7.68945Z" fill="black"/>
<path d="M38.2567 0L36.5547 4.39434H40.0675L41.6684 0H38.2567Z" fill="#C22033"/>
</g>
<defs>
<clipPath id="clip0_3211_10926">
<rect width="87.1064" height="48" fill="white"/>
</clipPath>
</defs>
</svg>
